<svg width="1149" height="723" viewBox="0 0 1149 723" fill="none" xmlns="http://www.w3.org/2000/svg">

<path d="M1105.71 289.204C1105.71 253.527 1104.97 213.005 1104.97 174.191C1105.15 174.218 1097.11 159.923 1094.48 156.653C1091.69 156.653 1089.54 156.693 1086.63 156.693C1080.88 162.659 1074.55 174.285 1074.55 174.285C1074.55 206.745 1072.1 261.389 1072.1 286.722C1072.1 289.418 1098.29 289.925 1105.71 289.204Z" fill="white"/>
<path d="M1096.55 290.153C1086.96 290.153 1074.12 289.499 1071.88 287.671C1071.45 287.324 1071.37 286.977 1071.37 286.736C1071.37 274.844 1071.91 256.492 1072.48 237.045C1073.14 214.661 1073.82 191.53 1073.82 174.299C1073.82 174.192 1073.85 174.099 1073.9 174.005C1074.16 173.525 1080.33 162.233 1086.07 156.28C1086.2 156.147 1086.41 156.053 1086.61 156.053C1088.08 156.053 1089.35 156.04 1090.6 156.027C1091.85 156.013 1093.08 156 1094.46 156C1094.7 156 1094.9 156.093 1095.03 156.267C1096.54 158.149 1099.64 163.354 1101.35 166.291C1104.77 172.164 1105.56 173.658 1105.65 174.192H1105.66C1105.66 194 1105.85 214.381 1106.04 234.082C1106.22 253.448 1106.39 271.734 1106.39 289.206C1106.39 289.539 1106.11 289.82 1105.75 289.846C1103.91 290.047 1100.5 290.153 1096.55 290.153ZM1072.8 286.683C1073.22 287.204 1076.64 288.165 1086.89 288.632C1093.48 288.939 1101.04 288.925 1104.97 288.618C1104.97 271.334 1104.8 253.248 1104.62 234.108C1104.43 214.434 1104.24 194.093 1104.24 174.312C1103.63 172.991 1096.72 160.765 1094.1 157.321C1092.87 157.321 1091.75 157.335 1090.62 157.348C1089.45 157.361 1088.27 157.375 1086.94 157.375C1081.7 162.914 1075.96 173.165 1075.24 174.473C1075.24 191.704 1074.55 214.781 1073.9 237.098C1073.36 256.478 1072.81 274.804 1072.8 286.683Z" fill="black"/>
<path d="M1117.05 286.737H1054.12V296.4H1117.05V286.737Z" fill="white"/>
<path d="M1117.05 297.055H1054.12C1053.72 297.055 1053.4 296.762 1053.4 296.401V286.738C1053.4 286.377 1053.72 286.084 1054.12 286.084H1117.05C1117.45 286.084 1117.77 286.377 1117.77 286.738V296.401C1117.75 296.762 1117.45 297.055 1117.05 297.055ZM1054.82 295.747H1116.33V287.378H1054.82V295.747Z" fill="black"/>
<path d="M1084.33 172.514L1104.55 172.487L1148.07 177.492L1147.98 185.834L1004.5 185.634V177.479L1084.33 172.514Z" fill="white"/>
<path d="M1147.98 186.487L1004.49 186.273C1004.09 186.273 1003.77 185.98 1003.77 185.619L1003.79 177.464C1003.79 177.117 1004.08 176.837 1004.44 176.824L1084.26 171.858C1084.28 171.858 1084.29 171.858 1084.31 171.858L1104.54 171.818C1104.57 171.818 1104.6 171.818 1104.62 171.818L1148.16 176.837C1148.52 176.877 1148.79 177.157 1148.79 177.491L1148.7 185.833C1148.7 186.193 1148.38 186.487 1147.98 186.487ZM1005.2 184.979L1147.28 185.192L1147.35 178.065L1104.51 173.14L1084.35 173.18L1005.22 178.092L1005.2 184.979Z" fill="black"/>
<path d="M1000.72 214.274L1038.97 214.26L1038.93 230.891L1000.99 230.424L1000.72 214.274Z" fill="#9DD78F"/>
<path d="M1038.93 231.545L1000.98 231.078C1000.6 231.078 1000.28 230.784 1000.28 230.437L1000 214.287C1000 214.113 1000.07 213.94 1000.2 213.82C1000.34 213.7 1000.53 213.62 1000.72 213.62H1038.97C1039.16 213.62 1039.34 213.686 1039.47 213.806C1039.6 213.927 1039.67 214.1 1039.67 214.274L1039.63 230.891C1039.63 231.064 1039.56 231.225 1039.41 231.358C1039.29 231.465 1039.12 231.545 1038.93 231.545ZM1001.7 229.783L1038.23 230.224L1038.27 214.914H1001.45L1001.7 229.783Z" fill="black"/>
<path d="M1038.93 215.078C1038.7 215.078 1038.46 214.971 1038.33 214.771C1034 208.591 1030.35 202.104 1026.49 195.257C1025 192.614 1023.45 189.878 1021.81 187.062C1014.38 196.405 1007.78 205.174 1001.62 213.823C1001.4 214.13 1000.97 214.21 1000.64 214.01C1000.31 213.81 1000.22 213.409 1000.44 213.116C1006.78 204.186 1013.62 195.137 1021.33 185.46C1021.47 185.273 1021.71 185.18 1021.96 185.193C1022.21 185.206 1022.43 185.34 1022.54 185.54C1024.38 188.703 1026.09 191.733 1027.76 194.67C1031.62 201.504 1035.26 207.95 1039.54 214.09C1039.75 214.397 1039.66 214.797 1039.32 214.984C1039.19 215.051 1039.06 215.078 1038.93 215.078Z" fill="black"/>
<path d="M1105.56 285.945C1100.43 282.662 1091.63 277.83 1083.87 273.559C1079.35 271.076 1075.07 268.727 1071.97 266.939L1071.32 266.565L1072.08 266.538C1082.86 266.151 1093.6 266.124 1103.98 266.111C1094.87 259.104 1084.71 252.403 1072.92 245.65L1072.24 245.263L1073.05 245.249C1083.56 245.102 1094.36 245.463 1104.83 245.837C1095.44 239.016 1085.72 232.262 1074.33 224.641L1073.72 224.227L1074.48 224.241C1085.09 224.468 1095.2 224.828 1104.54 225.308C1095.84 219.022 1086.72 212.589 1075.9 205.101L1075.39 204.74L1076.03 204.714C1084.04 204.313 1092.67 204.367 1103.12 204.86C1095.28 197.893 1086.82 191.326 1078.85 185.267L1079.16 184.933C1087.3 191.113 1095.93 197.826 1103.91 204.954L1104.36 205.354L1103.73 205.328C1093.28 204.82 1084.67 204.754 1076.7 205.114C1087.54 212.615 1096.67 219.075 1105.41 225.389L1106 225.816L1105.25 225.776C1095.94 225.295 1085.84 224.921 1075.23 224.694C1086.59 232.316 1096.29 239.07 1105.69 245.903L1106.26 246.317L1105.55 246.29C1095.11 245.93 1084.35 245.556 1073.87 245.676C1085.59 252.43 1095.72 259.144 1104.8 266.164L1105.3 266.552H1104.65C1094.3 266.565 1083.62 266.592 1072.89 266.965C1075.93 268.7 1079.92 270.903 1084.13 273.212C1091.91 277.483 1100.71 282.315 1105.85 285.611L1105.56 285.945Z" fill="black"/>
<path d="M346.31 629.229C325.703 631.515 310.724 639.721 307.62 650.399C307.124 652.235 307 655.757 307 671.644C307 684.121 307.165 691.315 307.455 692.627C309.607 701.957 321.483 709.937 338.034 713.31C366.669 719.08 397.745 709.488 402.379 693.489C402.876 691.653 403 688.131 403 672.244C403 659.766 402.835 652.572 402.545 651.261C400.186 641.107 386.738 632.864 367.621 629.791C363.193 629.079 350.697 628.742 346.31 629.229ZM377.096 666.099C375.193 667.897 374.366 670.37 375.276 671.382C375.938 672.094 376.931 671.644 376.931 670.633C376.931 669.396 377.593 667.972 378.586 667.073C379.703 666.061 380.655 666.099 380.655 667.185C380.655 668.234 381.359 668.946 382.145 668.684C383.014 668.385 382.848 666.549 381.855 665.424C380.572 663.963 379.207 664.15 377.097 666.099H377.096ZM325.455 665.05C325.083 665.387 324.793 666.249 324.793 667.11C324.793 668.347 324.917 668.609 325.497 668.497C325.91 668.422 326.283 668.047 326.366 667.635C326.655 666.249 327.234 665.912 328.269 666.549C329.345 667.148 330.007 668.31 330.421 670.258C330.752 671.906 331.952 671.944 332.158 670.295C332.366 668.609 331.91 667.56 330.338 665.949C329.138 664.788 328.517 664.45 327.483 664.45C326.696 664.45 325.786 664.713 325.455 665.05ZM340.972 649.313C336.131 650.474 333.235 652.198 331.827 654.746C329.179 659.429 333.483 664.3 341.676 665.911C344.49 666.436 350.2 666.436 353.014 665.911C359.882 664.6 364.31 660.553 363.441 656.394C363.11 654.671 360.338 651.898 357.855 650.737C353.552 648.788 345.855 648.114 340.972 649.313ZM353.179 651.111C357.731 652.198 360.752 654.296 361.455 656.769L361.745 657.893L360.379 656.844C356.904 654.184 352.269 653.059 345.897 653.322C341.096 653.509 337.952 654.333 334.848 656.282C332.903 657.481 332.572 657.144 333.896 655.195C334.931 653.659 337.331 652.197 340.393 651.336C343.331 650.474 350.076 650.361 353.179 651.111V651.111ZM353.841 655.832C356.697 656.619 360.131 658.493 360.545 659.429C360.917 660.329 358.31 662.389 355.579 663.289C350.448 665.05 344.241 665.05 339.193 663.326C336.793 662.539 333.896 660.553 333.896 659.766C333.896 659.204 335.924 657.556 337.662 656.732C341.428 654.97 349.248 654.521 353.841 655.832ZM328.641 639.908C326.324 641.594 325.166 645.903 327.069 645.903C327.69 645.903 327.938 645.566 328.145 644.479C328.641 641.631 331.621 639.571 331.91 641.856C331.993 642.493 332.324 642.943 332.779 643.018C333.648 643.168 334.062 642.306 333.731 641.069C333.11 638.859 330.876 638.334 328.641 639.908ZM365.055 631.29C383.096 633.426 396.917 640.92 400.186 650.362C403.538 659.879 394.683 669.846 378.545 674.717C370.021 677.302 366.752 677.714 355.414 677.752C346.517 677.752 344.738 677.639 340.683 676.927C320.696 673.255 308.2 663.776 309.193 653.097C310.186 642.531 325.083 633.501 345.483 631.14C349.952 630.616 360.048 630.691 365.055 631.29H365.055ZM400.434 663.963C397.869 672.656 385.786 680.075 369.814 682.847C348.503 686.519 324.958 681.611 314.365 671.232C312.007 668.946 309.483 664.937 309.483 663.551C309.524 662.839 309.607 662.877 310.434 663.888C316.352 671.195 327.441 676.553 341.552 678.913C347.345 679.887 362.986 679.887 368.531 678.951C376.724 677.527 384.338 675.091 389.676 672.094C393.11 670.146 397.704 666.399 399.524 664.038C400.145 663.251 400.682 662.577 400.765 662.577C400.807 662.577 400.683 663.214 400.434 663.963ZM314.49 674.042C320.655 679.138 330.586 683.11 341.552 684.908C346.724 685.732 358.393 686.032 364.186 685.433C380.034 683.859 393.731 677.789 399.772 669.658L400.972 668.01L400.848 680.562L400.724 693.114L399.442 695.55C393.979 706.004 375.855 713.198 355 713.16C332.821 713.123 313.704 704.842 309.814 693.601C309.152 691.615 309.069 690.004 309.069 679.738V668.122L310.848 670.295C311.841 671.532 313.497 673.181 314.49 674.042Z" fill="black"/>
<path d="M113.507 675.267C113.507 675.267 99.6048 652.816 100.134 652.345C100.364 647.491 103.145 643.85 107.349 640.135C111.554 636.42 135.899 624.185 142.233 621.585C150.94 618.018 173.644 615.789 181.144 619.665C181.144 619.665 188.346 633.312 187.627 634.092C187.464 638.5 177.102 651.553 173.196 654.871C169.29 658.19 164.53 660.654 159.837 663.081C156.161 664.976 152.5 666.871 148.824 668.765C143.318 671.614 137.73 674.487 131.694 676.146C125.659 677.805 119.027 678.14 113.507 675.267Z" fill="white"/>
<path d="M122.988 678.014C119.326 678.014 116.016 677.271 113.182 675.798C113.073 675.748 112.992 675.661 112.938 675.575C112.897 675.513 109.425 669.891 106.048 664.281C100.175 654.511 99.3342 652.752 99.4834 652.17C99.8089 646.647 103.403 642.771 106.889 639.7C111.161 635.936 135.642 623.626 141.962 621.026C150.805 617.398 173.672 615.094 181.457 619.131C181.579 619.193 181.674 619.28 181.728 619.391C181.741 619.429 183.545 622.846 185.241 626.326C188.292 632.592 188.482 633.818 188.252 634.276C187.818 639.069 177.469 652.022 173.617 655.291C169.63 658.684 164.802 661.173 160.122 663.588L149.11 669.272C143.644 672.095 137.988 675.017 131.844 676.714C128.752 677.581 125.768 678.014 122.988 678.014ZM113.996 674.819C119.868 677.791 126.745 676.875 131.505 675.562C137.5 673.915 143.088 671.018 148.499 668.231L159.512 662.547C164.11 660.17 168.87 657.706 172.749 654.412C176.886 650.895 186.814 638.127 186.977 634.053C186.977 633.979 186.99 633.905 187.031 633.843C187.004 632.753 183.817 626.078 180.656 620.085C173.116 616.407 150.873 618.698 142.532 622.116C136.266 624.679 112.015 636.864 107.838 640.555C103.118 644.715 101.03 648.245 100.826 652.356C100.826 652.368 100.826 652.381 100.826 652.393C101.233 653.916 109.032 666.82 113.996 674.819ZM100.609 652.752C100.609 652.752 100.609 652.765 100.609 652.752C100.609 652.765 100.609 652.752 100.609 652.752Z" fill="black"/>
<path d="M164.015 676.187C163.73 669.97 164.15 663.717 165.303 657.575C165.832 654.739 166.537 651.878 168.138 649.389C169.196 647.755 171.393 646.194 173.169 647.185C173.943 647.618 174.363 648.436 174.621 649.216C175.57 652.002 175.272 654.986 175.041 657.884C174.553 664.125 174.404 670.379 174.607 676.62C174.702 679.456 174.553 682.837 171.895 684.323C169.887 685.437 167.039 684.818 165.574 683.159C164.11 681.524 164.15 679.072 164.015 676.187Z" fill="white"/>
<path d="M169.616 685.5C167.935 685.5 166.198 684.807 165.073 683.556C163.594 681.897 163.5 679.643 163.391 677.018L163.35 676.213C163.065 669.959 163.499 663.656 164.639 657.477C165.168 654.653 165.887 651.681 167.555 649.093C168.219 648.065 169.562 646.74 171.149 646.369C171.99 646.183 172.804 646.282 173.509 646.678C174.54 647.26 175.001 648.313 175.245 649.044C176.181 651.805 175.95 654.715 175.733 657.526L175.706 657.935C175.218 664.127 175.082 670.405 175.272 676.609C175.38 679.791 175.096 683.246 172.234 684.844C171.461 685.29 170.552 685.5 169.616 685.5ZM164.679 676.163L164.72 676.98C164.829 679.482 164.91 681.451 166.104 682.801C167.419 684.274 169.928 684.745 171.569 683.828C173.834 682.565 174.065 679.643 173.97 676.658C173.766 670.417 173.916 664.089 174.404 657.861L174.431 657.452C174.648 654.752 174.865 651.954 173.997 649.403C173.699 648.523 173.319 647.979 172.831 647.706C172.424 647.483 171.99 647.434 171.488 647.545C170.511 647.768 169.399 648.635 168.708 649.712C167.148 652.127 166.47 654.975 165.954 657.687C164.815 663.767 164.395 669.996 164.679 676.163Z" fill="black"/>
<path d="M35.0339 703.497C34.2608 693.615 33.6098 682.99 37.8821 674.433C39.4553 671.287 41.5983 668.613 43.7819 666.012C48.5424 660.316 53.5063 654.83 58.633 649.592C60.9794 647.202 63.3936 644.836 66.2282 643.363C70.4869 641.159 71.8974 641.159 76.5495 641.208C82.3408 641.258 88.1456 641.32 93.7741 641.691C95.4423 642.124 95.8085 644.675 95.8085 646.669C95.8492 656.291 95.6458 675.807 95.6458 675.807L175.178 676.538C175.178 676.538 174.988 694.729 174.988 703.063L35.0339 703.497Z" fill="white"/>
<path d="M35.0334 704.09C34.6807 704.09 34.3959 703.842 34.3688 703.533C33.5008 692.412 33.1074 682.531 37.2712 674.172C38.858 670.977 41.001 668.314 43.2388 665.627C47.9858 659.943 53.004 654.408 58.1171 649.17C60.5584 646.681 62.9862 644.315 65.8886 642.817C70.3236 640.526 71.8834 640.538 76.549 640.576C82.2589 640.625 88.1586 640.687 93.8143 641.059C93.855 641.059 93.9092 641.071 93.9499 641.083C95.591 641.504 96.459 643.424 96.4726 646.643C96.5133 655.213 96.3505 671.819 96.3098 675.187L175.177 675.905C175.543 675.905 175.828 676.178 175.828 676.512C175.828 676.698 175.638 694.802 175.638 703.037C175.638 703.372 175.34 703.644 174.974 703.644L35.0334 704.09ZM74.9078 641.789C71.5443 641.789 70.1473 642.024 66.5532 643.882C63.8406 645.294 61.4943 647.572 59.1208 649.987C54.0212 655.188 49.0301 660.699 44.2967 666.37C42.0995 668.995 40.0109 671.596 38.4783 674.679C34.518 682.63 34.8164 692.165 35.6437 702.889L174.323 702.455C174.336 694.864 174.472 680.264 174.513 677.131L95.6453 676.413C95.2791 676.413 94.9943 676.141 94.9943 675.806C94.9943 675.608 95.1977 656.191 95.157 646.668C95.1434 644.204 94.5874 642.582 93.6516 642.285C88.0637 641.925 82.2046 641.864 76.549 641.814C75.9522 641.789 75.4096 641.789 74.9078 641.789Z" fill="black"/>
<path d="M64.3431 694.383C55.4731 694.383 49.831 698.928 48.7324 705.491C47.7288 711.447 51.0245 718.01 57.2905 720.747C67.449 725.168 79.0045 718.37 79.0045 708.698C78.9909 698.853 71.8162 694.383 64.3431 694.383Z" fill="#FFA24B"/>
<path d="M63.8816 722.731C61.5352 722.731 59.1889 722.26 56.9917 721.294C50.7257 718.57 46.9689 711.883 48.0674 705.406C49.2745 698.236 55.5134 693.778 64.3292 693.778C71.9514 693.778 79.6415 698.397 79.6415 708.7C79.6415 713.443 76.9289 717.839 72.3854 720.464C69.7949 721.963 66.8382 722.731 63.8816 722.731ZM64.3427 694.979C56.2186 694.979 50.4816 699.041 49.383 705.58C48.3793 711.548 51.8243 717.691 57.5749 720.192C62.1455 722.186 67.4215 721.901 71.6937 719.437C75.8575 717.047 78.3395 713.022 78.3395 708.7C78.3259 698.583 70.7986 694.979 64.3427 694.979Z" fill="black"/>
<path d="M64.0714 701.31C59.4058 701.31 56.4492 703.589 55.866 706.883C55.337 709.867 57.073 713.161 60.3688 714.523C65.7125 716.74 71.7886 713.334 71.7886 708.48C71.7751 703.552 67.9911 701.31 64.0714 701.31Z" fill="white"/>
<path d="M63.8406 715.813C62.5657 715.813 61.2908 715.566 60.0973 715.07C56.6795 713.646 54.6179 710.166 55.2147 706.786C55.8793 703.034 59.27 700.706 64.0712 700.706C68.2349 700.706 72.4394 703.108 72.4394 708.482C72.4394 710.872 71.0424 713.126 68.6961 714.501C67.2177 715.38 65.5359 715.813 63.8406 715.813ZM64.0712 701.907C59.8938 701.907 57.0728 703.801 56.5167 706.971C56.0149 709.832 57.7374 712.767 60.6398 713.968C63.0404 714.959 65.7801 714.785 67.9908 713.485C69.9574 712.334 71.1238 710.464 71.1238 708.47C71.1103 703.628 67.3127 701.907 64.0712 701.907Z" fill="black"/>
<path d="M149.965 694.383C141.095 694.383 135.453 698.928 134.354 705.491C133.351 711.447 136.646 718.01 142.912 720.747C153.071 725.168 164.626 718.37 164.626 708.698C164.613 698.853 157.424 694.383 149.965 694.383Z" fill="#FFA24B"/>
<path d="M149.503 722.731C147.157 722.731 144.811 722.26 142.614 721.294C136.348 718.57 132.591 711.883 133.689 705.406C134.896 698.236 141.135 693.778 149.951 693.778C157.573 693.778 165.263 698.397 165.263 708.7C165.263 713.443 162.551 717.839 158.007 720.464C155.403 721.963 152.46 722.731 149.503 722.731ZM149.965 694.979C141.84 694.979 136.103 699.041 135.005 705.58C134.001 711.548 137.446 717.691 143.197 720.192C147.767 722.186 153.043 721.901 157.316 719.437C161.479 717.047 163.961 713.022 163.961 708.7C163.948 698.583 156.407 694.979 149.965 694.979Z" fill="black"/>
<path d="M149.692 701.31C145.027 701.31 142.07 703.589 141.487 706.883C140.958 709.867 142.694 713.161 145.99 714.523C151.334 716.74 157.41 713.334 157.41 708.48C157.396 703.552 153.612 701.31 149.692 701.31Z" fill="white"/>
<path d="M149.449 715.813C148.174 715.813 146.899 715.566 145.706 715.07C142.288 713.646 140.226 710.166 140.823 706.786C141.488 703.034 144.878 700.706 149.68 700.706C153.843 700.706 158.048 703.108 158.048 708.482C158.048 710.872 156.651 713.126 154.305 714.501C152.826 715.38 151.144 715.813 149.449 715.813ZM149.693 701.907C145.516 701.907 142.695 703.801 142.139 706.971C141.637 709.832 143.359 712.767 146.262 713.968C148.663 714.959 151.402 714.785 153.599 713.485C155.566 712.334 156.732 710.464 156.732 708.47C156.732 703.628 152.935 701.907 149.693 701.907Z" fill="black"/>
<path d="M53.8587 672.366L65.6041 657.704C67.5164 654.744 71.5852 652.689 74.9217 652.713L81.486 653.085L81.2962 672.354L53.8587 672.366Z" fill="white"/>
<path d="M53.8589 672.975C53.6148 672.975 53.3843 672.851 53.2758 672.64C53.1673 672.442 53.1808 672.194 53.33 672.009L65.0618 657.371C67.0284 654.362 71.2328 652.109 74.8812 652.109C74.8948 652.109 74.9219 652.109 74.9355 652.109L81.5405 652.48C81.8931 652.505 82.1644 652.765 82.1644 653.087L81.9745 672.355C81.9745 672.69 81.6761 672.95 81.3099 672.95L53.8589 672.975ZM74.8405 653.322C71.6533 653.322 67.9099 655.328 66.1739 658.015C66.1603 658.028 66.1468 658.053 66.1332 658.065L55.161 671.761L80.6589 671.749L80.8352 653.644L74.8948 653.31C74.8676 653.322 74.8541 653.322 74.8405 653.322Z" fill="black"/>
<path d="M38.2069 698.168C38.0848 698.168 37.9899 698.082 37.9899 697.97C37.9899 697.859 38.0848 697.772 38.2069 697.772L48.5417 697.685C48.6638 697.685 48.7587 697.772 48.7587 697.884C48.7587 697.995 48.6638 698.082 48.5417 698.082L38.2069 698.168Z" fill="black"/>
<path d="M78.9898 698.533C78.8678 698.533 78.7728 698.446 78.7728 698.334C78.7728 698.223 78.8678 698.136 78.9898 698.136C86.2459 698.136 93.8003 698.025 101.097 697.926C111.812 697.777 122.892 697.616 133.77 697.777C133.892 697.777 133.987 697.876 133.987 697.975C133.987 698.087 133.892 698.174 133.77 698.174C122.892 698.013 111.825 698.174 101.111 698.322C93.8004 698.421 86.2459 698.533 78.9898 698.533Z" fill="black"/>
<path d="M163.229 698.041C163.107 698.041 163.012 697.954 163.012 697.843C163.012 697.731 163.107 697.645 163.229 697.645C164.802 697.645 167.27 697.62 169.251 697.608C170.62 697.595 171.773 697.583 172.289 697.583C172.411 697.583 172.506 697.67 172.506 697.781C172.506 697.892 172.411 697.979 172.289 697.979C171.773 697.979 170.62 697.992 169.251 698.004C167.27 698.016 164.802 698.041 163.229 698.041Z" fill="black"/>
<path d="M143.902 666.11C143.835 666.11 143.753 666.073 143.713 666.011C136.945 655.72 130.258 645.194 123.857 634.73C123.802 634.631 123.83 634.507 123.938 634.458C124.047 634.408 124.182 634.433 124.236 634.532C130.638 644.996 137.324 655.509 144.092 665.8C144.16 665.899 144.119 666.023 144.011 666.072C143.97 666.097 143.93 666.11 143.902 666.11Z" fill="black"/>
<path d="M163.934 650.063C163.852 650.063 163.784 650.026 163.744 649.964L146.885 623.637C146.817 623.538 146.858 623.414 146.967 623.364C147.075 623.315 147.211 623.34 147.265 623.439L164.124 649.766C164.191 649.865 164.151 649.989 164.042 650.038C164.001 650.063 163.974 650.063 163.934 650.063Z" fill="black"/>
<path d="M23.3287 689.585C23.3016 689.585 23.2744 689.585 23.2473 689.585C15.5844 688.755 7.96211 686.489 1.24855 683.022C0.936609 682.861 0.814554 682.489 1.00443 682.205C1.18075 681.92 1.58764 681.808 1.89958 681.982C8.47751 685.375 15.9099 687.591 23.4101 688.396C23.7763 688.434 24.034 688.731 23.9933 689.065C23.9526 689.35 23.6678 689.585 23.3287 689.585Z" fill="black"/>
<path d="M20.7107 695.09C20.7107 695.09 20.6972 695.09 20.7107 695.09L0.65143 694.978C0.285236 694.978 -0.0131179 694.706 0.000444842 694.372C0.000444842 694.037 0.298812 693.777 0.665006 693.777L20.7243 693.889C21.0905 693.889 21.3889 694.161 21.3753 694.495C21.3617 694.83 21.0634 695.09 20.7107 695.09Z" fill="black"/>
<path d="M7.14911 706.316C6.91854 706.316 6.70152 706.204 6.57945 706.006C6.40314 705.721 6.51167 705.35 6.82361 705.189C10.7161 703.17 14.907 701.709 19.2878 700.867C19.6404 700.793 19.993 701.003 20.0744 701.325C20.1558 701.647 19.9252 701.969 19.5726 702.043C15.3274 702.873 11.2586 704.285 7.48817 706.241C7.37967 706.291 7.25761 706.316 7.14911 706.316Z" fill="black"/>
<path d="M593.797 268.378L580.894 263.755L520.765 257.757L534.227 224.859L582.785 258.048L594.902 263.365L593.797 268.378Z" fill="white"/>
<path d="M594.473 268.626C594.412 268.765 594.296 268.884 594.15 268.962C593.965 269.056 593.732 269.073 593.539 269.003L580.719 264.41L520.683 258.417C520.468 258.397 520.263 258.279 520.147 258.104C520.031 257.93 520.012 257.718 520.081 257.524L533.543 224.625C533.613 224.431 533.806 224.282 534.022 224.229C534.237 224.176 534.481 224.206 534.666 224.332L583.179 257.476L595.227 262.768C595.52 262.904 595.681 263.197 595.628 263.5L594.537 268.518C594.506 268.551 594.49 268.589 594.473 268.626ZM521.761 257.201L580.959 263.092C581.02 263.1 581.081 263.107 581.15 263.132L593.259 267.481L594.075 263.752L582.471 258.652C582.43 258.637 582.394 258.609 582.358 258.581L534.578 225.925L521.761 257.201Z" fill="black"/>
<path d="M583.945 256.346C583.945 256.346 580.512 264.916 580.253 265.509C583.78 266.826 586.899 268.712 590.117 270.662C597.856 275.362 611.723 281.04 613.827 281.252C618.77 281.754 620.796 277.457 621.799 274.984C622.991 272.008 622.592 269.037 621.486 267.681C620.524 266.51 619.015 265.93 617.585 265.423C610.494 262.907 603.19 260.913 595.772 259.508C591.8 258.731 586.632 257.532 583.945 256.346Z" fill="#FFA24B" fill-opacity="0.4"/>
<path d="M622.095 276.105C621.067 278.453 618.803 282.413 613.733 281.909C611.433 281.669 597.488 275.948 589.713 271.221C586.658 269.374 583.509 267.448 579.968 266.126C579.594 265.989 579.426 265.606 579.575 265.265C579.824 264.697 583.237 256.208 583.256 256.127C583.334 255.951 583.475 255.812 583.668 255.736C583.862 255.66 584.064 255.675 584.252 255.759C587.434 257.169 593.966 258.471 595.885 258.85C603.33 260.265 610.709 262.271 617.814 264.792C619.437 265.37 620.977 265.991 622.036 267.271C623.239 268.735 623.77 271.915 622.46 275.199C622.368 275.444 622.244 275.764 622.095 276.105ZM581.167 265.144C584.579 266.506 587.592 268.339 590.506 270.105C598.386 274.886 611.991 280.395 613.893 280.591C618.04 281.007 619.922 277.698 621.102 274.747C622.23 271.953 621.826 269.214 620.88 268.079C620.054 267.074 618.757 266.557 617.286 266.034C610.25 263.538 602.946 261.545 595.589 260.147C593.251 259.703 587.716 258.575 584.348 257.258C583.663 258.969 581.85 263.475 581.167 265.144Z" fill="black"/>
<path d="M588.181 260.159C588.482 259.435 588.792 258.728 589.102 258.021C587.083 257.504 585.234 256.931 583.946 256.358C583.946 256.358 580.513 264.928 580.253 265.521C581.948 266.155 583.554 266.917 585.108 267.763C586.097 265.211 587.109 262.681 588.181 260.159Z" fill="white"/>
<path d="M585.79 267.996C585.713 268.173 585.558 268.307 585.37 268.37C585.162 268.441 584.947 268.421 584.751 268.32C583.036 267.401 581.474 266.684 579.987 266.126C579.614 265.99 579.445 265.607 579.594 265.266C579.843 264.698 583.256 256.209 583.276 256.128C583.353 255.951 583.494 255.812 583.688 255.737C583.881 255.661 584.083 255.676 584.271 255.759C585.399 256.259 587.099 256.807 589.303 257.377C589.502 257.435 589.659 257.551 589.762 257.72C589.85 257.884 589.861 258.079 589.784 258.255C589.474 258.962 589.159 259.682 588.863 260.393C587.835 262.814 586.846 265.293 585.801 267.971C585.795 267.984 585.79 267.996 585.79 267.996ZM581.167 265.152C582.298 265.609 583.476 266.141 584.717 266.785C585.66 264.377 586.563 262.13 587.498 259.924C587.713 259.432 587.915 258.935 588.125 258.455C586.604 258.046 585.338 257.642 584.354 257.254C583.663 258.978 581.85 263.484 581.167 265.152Z" fill="black"/>
<path d="M618.343 275.336C617.995 276.131 617.329 276.737 616.85 277.133C616.322 277.57 615.875 277.86 615.424 278.047C613.873 278.696 612.203 278.262 610.503 277.714C610.379 277.669 610.307 277.54 610.357 277.426C610.392 277.308 610.547 277.247 610.672 277.292C612.275 277.805 613.843 278.216 615.233 277.64C615.645 277.469 616.043 277.219 616.546 276.802C617.019 276.419 617.671 275.808 617.962 275.035C618.017 274.909 618.139 274.851 618.263 274.896C618.387 274.942 618.465 275.058 618.415 275.171C618.387 275.235 618.365 275.285 618.343 275.336Z" fill="black"/>
<path d="M526.57 256.154C526.52 256.268 526.385 256.321 526.26 256.275C526.136 256.23 526.078 256.106 526.114 255.987L536.506 229.99C536.561 229.864 536.691 229.824 536.821 229.856C536.946 229.902 537.004 230.026 536.968 230.144L526.57 256.154Z" fill="black"/>
<path d="M943.377 300.812H907.535V319.992H943.377V300.812Z" fill="white"/>
<path d="M943.377 320.626H907.535C907.153 320.626 906.842 320.342 906.842 319.993V300.813C906.842 300.464 907.153 300.179 907.535 300.179H943.377C943.759 300.179 944.071 300.464 944.071 300.813V319.993C944.071 320.342 943.759 320.626 943.377 320.626ZM908.229 319.372H942.683V301.446H908.229V319.372Z" fill="black"/>
<path d="M907.535 300.812H871.694V319.992H907.535V300.812Z" fill="white"/>
<path d="M907.535 320.626H871.694C871.311 320.626 871 320.342 871 319.993V300.813C871 300.464 871.311 300.179 871.694 300.179H907.535C907.918 300.179 908.229 300.464 908.229 300.813V319.993C908.229 320.342 907.918 320.626 907.535 320.626ZM872.387 319.372H906.842V301.446H872.387V319.372Z" fill="black"/>
<path d="M925.456 281.633H889.615V300.813H925.456V281.633Z" fill="white"/>
<path d="M925.456 301.447H889.615C889.232 301.447 888.921 301.162 888.921 300.813V281.633C888.921 281.284 889.232 281 889.615 281H925.456C925.839 281 926.15 281.284 926.15 281.633V300.813C926.15 301.162 925.839 301.447 925.456 301.447ZM890.308 300.18H924.763V282.254H890.308V300.18Z" fill="black"/>
<path d="M901.066 296.92H893.804C893.677 296.92 893.578 296.829 893.578 296.713C893.578 296.597 893.677 296.506 893.804 296.506H901.066C901.193 296.506 901.292 296.597 901.292 296.713C901.292 296.829 901.193 296.92 901.066 296.92Z" fill="black"/>
<path d="M594.316 599.179C593.212 601.66 593.127 602.901 593.806 605.304C594.74 608.561 593.806 612.05 591.768 612.748C591.174 612.98 588.286 612.592 585.484 611.972C582.681 611.274 576.652 610.034 572.067 609.181C565.103 607.863 563.405 607.243 561.622 605.382C560.433 604.141 558.055 602.746 556.527 602.28C552.026 600.962 550.922 602.436 550.837 609.801C550.752 615.384 550.413 616.391 545.572 625.851C537.505 641.745 531.731 658.337 528.419 675.705C527.4 680.589 526.975 681.52 524.513 683.226C522.729 684.466 521.286 686.404 520.606 688.343C519.672 691.289 519.757 691.677 521.286 692.685C522.305 693.382 524.767 693.693 528.419 693.615C533.259 693.46 534.787 693.848 541.156 696.561C553.13 701.756 575.548 708.191 586.333 709.587C589.135 709.975 590.494 710.595 590.833 711.603C591.428 713.309 596.353 716.177 598.731 716.177C601.703 716.177 603.401 712.223 602.722 706.641C602.297 703.074 602.467 701.446 603.401 700.36C604.505 698.965 604.76 698.965 613.846 700.903C618.941 701.989 625.31 703.307 628.028 703.772C631.509 704.392 633.292 705.168 634.227 706.486C635.331 708.036 640.85 710.75 642.888 710.75C643.822 710.75 646.455 705.633 646.455 703.772C646.455 702.997 646.03 701.523 645.606 700.515C644.841 699.042 645.351 697.337 649.087 690.204C658.088 672.681 663.184 658.57 667.26 640.194C668.703 633.759 669.892 630.27 670.741 629.882C673.544 628.487 675.242 626.238 675.836 623.447C676.686 619.415 674.817 618.252 668.109 618.717C663.693 619.028 662.334 618.717 657.494 616.546C644.926 610.886 629.386 606.079 614.186 603.288C608.666 602.28 606.628 601.582 605.439 600.109C603.571 598.016 599.665 596 597.372 596C596.183 596 595.249 597.008 594.315 599.179L594.316 599.179ZM546.762 650.041C544.129 657.329 543.28 660.508 543.959 660.818C548.715 662.447 601.194 678.186 601.873 678.186C602.722 678.186 610.45 658.182 609.771 657.717C609.686 657.562 596.268 653.453 580.049 648.49L550.583 639.574L546.761 650.041H546.762ZM604.421 602.125C604.761 603.211 605.949 603.831 608.072 604.141C622.254 606.235 641.87 611.739 653.843 617.012C660.382 619.881 662.08 620.268 667.43 620.346C670.826 620.423 673.799 620.733 674.053 620.966C675.327 622.129 672.61 626.936 669.893 628.409C667.345 629.805 667.005 630.425 666.411 634.379C664.628 647.715 656.73 670.665 648.238 687.567C643.059 697.802 642.634 699.042 643.568 701.058C644.842 704.005 643.483 708.424 641.19 708.424C640.256 708.424 638.048 707.106 636.265 705.478C633.718 703.074 632.189 702.376 628.962 701.911C622.848 701.213 606.628 697.569 606.119 696.794C605.864 696.484 607.138 693.305 608.922 689.738C610.79 686.172 613.847 679.116 615.885 674.076C617.923 669.114 619.791 665.005 620.046 665.005C620.385 665.005 626.245 666.711 633.123 668.804C641.87 671.518 645.776 672.371 646.031 671.751C649.173 664.075 653.079 652.134 652.569 651.747C652.23 651.514 646.625 649.653 640.002 647.638C633.378 645.622 627.349 643.528 626.5 642.985C623.952 641.357 625.396 636.938 629.217 634.689C637.454 629.727 633.548 621.431 624.037 623.912C620.725 624.765 620.046 624.688 616.224 622.904C613.932 621.896 608.242 619.493 603.572 617.71C598.901 615.926 594.91 614.298 594.74 614.143C594.57 613.988 595.08 612.515 595.844 610.809C597.033 608.483 597.118 607.475 596.438 606.235C595.25 604.219 595.25 602.125 596.353 599.489L597.203 597.473L600.514 599.101C602.383 599.954 604.081 601.35 604.421 602.125L604.421 602.125ZM558.141 604.917C559.499 605.537 560.773 606.777 561.113 607.63C561.367 608.483 562.471 609.336 563.49 609.491C564.509 609.724 568.586 610.421 572.577 611.119C582.342 612.825 603.572 619.338 612.997 623.602C620.555 627.013 620.725 627.013 624.122 625.928C628.028 624.688 631.34 625.618 631.849 628.099C632.189 629.572 628.113 633.992 626.415 633.992C624.801 633.992 624.631 634.534 622.254 645.699C618.772 661.749 609.006 687.49 601.534 699.818C599.156 703.849 599.071 704.16 600.345 706.408C601.364 708.269 601.449 709.199 600.684 711.68C600.09 713.308 599.495 714.627 599.241 714.627C597.967 714.627 593.806 712.068 592.447 710.44C591.089 708.889 588.966 708.269 579.965 706.563C566.293 703.927 556.697 701.136 543.62 695.708C534.194 691.832 532.75 691.444 528.929 691.832C523.409 692.297 522.135 691.599 522.9 688.265C523.324 686.637 524.428 685.319 526.211 684.311C528.759 682.915 529.014 682.45 530.797 673.378C533.344 660.896 543.195 633.759 549.309 622.516C553.47 614.84 553.98 613.445 553.13 611.817C551.942 609.413 551.942 608.328 553.045 605.769C553.98 603.443 554.744 603.288 558.141 604.916V604.917ZM650.616 653.065C650.956 653.375 645.096 669.657 644.502 670.2C644.247 670.433 620.895 663.454 620.3 662.989C620.131 662.912 620.98 658.803 622.254 653.918L624.546 645.002L637.454 648.956C644.502 651.049 650.446 652.91 650.616 653.065V653.065Z" fill="black"/>
<path fill-rule="evenodd" clip-rule="evenodd" d="M619.93 663.123L624.279 644.695L650.986 652.956L644.723 670.51L619.93 663.123Z" fill="#FFA24B"/>
<path d="M588.287 652.677C598.137 655.779 606.459 658.492 606.799 658.88C607.394 659.268 602.978 673.844 601.789 675.705C601.619 675.937 546.932 659.733 545.658 659.19C545.404 659.035 551.008 643.606 551.687 642.598C552.282 641.823 562.047 644.459 588.287 652.677Z" fill="#9DD78F"/>
<path d="M751.923 200.3C747.538 201.316 742.891 204.184 732.289 212.252C714.487 225.816 712 228.744 712 235.915C712.065 241.054 713.833 244.58 720.901 253.006C733.991 268.662 748.716 282.466 755.916 285.812C759.973 287.724 768.22 287.963 771.885 286.29C778.037 283.481 801.729 264.957 805.132 260.296C807.423 257.129 807.554 256.71 807.554 252.109C807.554 247.926 807.292 246.791 805.656 243.863C803.954 240.755 792.108 226.414 785.498 219.482C780.393 214.104 767.631 203.826 763.965 202.093C759.973 200.3 755.065 199.523 751.923 200.3V200.3ZM719.592 244.938C719.592 245.596 719.788 245.775 719.985 245.297C720.181 244.879 720.116 244.341 719.919 244.162C719.723 243.923 719.526 244.281 719.592 244.938ZM762.395 202.93C765.864 204.483 769.921 206.993 769.921 207.531C769.921 207.71 766.583 209.981 762.591 212.491C744.855 223.426 733.99 232.21 725.679 242.369C719.461 249.958 719.461 249.958 719.657 248.165C719.788 247.15 719.592 246.731 718.937 246.851C717.955 247.03 716.254 245.895 716.254 245.118C716.254 244.819 716.777 244.52 717.432 244.52C718.479 244.46 718.479 244.401 717.432 244.162C716.123 243.863 715.992 243.445 716.843 242.249C717.17 241.771 717.301 240.995 717.105 240.576C716.843 239.919 716.581 239.859 716.254 240.457C715.599 241.353 713.636 240.696 713.636 239.56C713.636 239.022 714.552 238.365 715.796 238.066C717.497 237.648 717.563 237.528 716.385 237.469C715.141 237.409 714.879 237.11 715.076 235.736C715.207 234.6 715.665 234.122 716.581 234.122C717.563 234.122 717.825 233.764 717.694 232.748C717.563 232.031 717.759 231.433 718.086 231.433C718.414 231.433 718.479 230.597 718.348 229.581C718.086 227.848 718.152 227.728 719.657 227.967C721.163 228.206 721.293 228.087 721.228 226.115C721.163 224.203 721.359 223.964 722.995 223.784C724.369 223.605 724.762 223.247 724.762 222.111C724.762 220.976 725.089 220.677 726.398 220.677C727.576 220.677 728.231 220.259 728.689 219.183C729.016 218.347 729.802 217.629 730.456 217.629C731.569 217.57 731.569 217.51 730.522 217.271C729.147 216.972 729.016 216.434 730.129 215.418C731.176 214.462 731.961 214.522 731.961 215.598C731.961 216.315 732.158 216.315 733.139 215.418C733.794 214.881 734.056 214.283 733.794 214.223C732.616 213.745 733.401 212.909 734.907 212.909C736.085 212.909 736.543 212.61 736.543 211.713C736.543 210.937 737.001 210.518 737.786 210.518C738.506 210.518 739.161 209.98 739.357 209.263C739.619 208.367 740.077 208.068 740.862 208.367C741.582 208.606 741.844 208.487 741.582 207.889C741.059 206.694 747.407 202.81 751.4 201.794C755.13 200.897 758.795 201.256 762.395 202.929V202.93ZM788.639 225.039C789.163 226.533 785.891 230.119 775.223 239.799C765.078 249.002 755.457 256.232 744.07 263.164L736.216 268.004L733.14 264.957C728.559 260.415 721.49 251.571 721.49 250.436C721.49 248.583 730.98 237.827 738.441 231.314C746.36 224.322 750.942 221.036 763.311 213.566L771.492 208.666L779.87 216.315C784.451 220.498 788.443 224.442 788.64 225.039H788.639ZM728.035 218.884C728.035 219.661 727.577 220.08 726.726 220.08C725.089 220.08 725.089 219.542 726.595 218.526C728.034 217.51 728.034 217.51 728.034 218.885L728.035 218.884ZM724.108 221.872C724.108 222.649 723.65 223.068 722.799 223.068C721.294 223.068 721.097 222.47 722.275 221.394C723.453 220.319 724.108 220.498 724.108 221.872ZM719.919 226.414C719.592 227.25 716.909 227.609 716.909 226.832C716.909 226.593 717.563 225.756 718.414 224.98C719.592 223.784 719.919 223.725 720.05 224.561C720.181 225.099 720.115 225.936 719.919 226.414H719.919ZM794.137 231.254C796.755 234.481 797.409 235.676 797.213 237.23C797.082 238.724 797.344 239.202 798.391 239.501C799.111 239.74 800.027 239.919 800.42 239.859C800.813 239.799 801.533 240.218 801.991 240.696C802.711 241.473 802.449 241.592 800.42 241.592H798.064V244.401C798.064 246.014 797.868 247.927 797.671 248.763C797.278 250.018 797.409 250.138 798.129 249.48C799.504 248.285 800.813 248.584 800.551 250.078C800.42 251.094 799.831 251.512 798.391 251.691C796.428 251.93 796.428 251.93 798.064 252.349C799.569 252.707 799.7 252.946 799.504 255.994C799.307 260.057 798.98 260.774 797.736 260.356C796.558 259.938 796.362 256.771 797.54 256.412C798.064 256.233 797.998 256.054 797.344 255.815C796.886 255.635 795.839 255.695 795.119 255.994C794.006 256.352 794.006 256.472 794.988 256.472C796.689 256.532 796.559 260.117 794.792 260.117C794.137 260.117 793.221 259.639 792.893 259.041C792.501 258.503 792.173 258.384 792.173 258.742C792.173 259.161 791.65 259.519 791.061 259.579C790.341 259.579 790.21 259.758 790.734 259.938C791.126 260.057 791.519 261.013 791.519 262.029C791.519 263.762 791.388 263.822 789.556 263.463C787.723 263.164 787.592 263.284 787.592 264.897C787.592 265.854 787.134 266.87 786.545 267.168C785.825 267.527 785.694 267.826 786.218 268.124C786.611 268.363 786.938 269.32 786.938 270.335C786.938 271.65 786.611 272.068 785.629 272.068C784.582 272.068 784.32 271.65 784.254 269.798L784.123 267.587L783.731 269.678C783.403 271.232 783.011 271.71 782.16 271.59C781.571 271.471 781.047 271.71 781.047 272.068C781.047 272.367 781.505 272.666 782.029 272.666C782.618 272.666 783.011 273.263 783.011 274.219C783.011 275.474 782.749 275.713 781.571 275.534C780.262 275.355 780.066 275.056 780.197 272.965C780.459 269.738 779.28 271.411 778.757 275.176C778.43 277.267 778.037 278.044 777.252 278.044C776.335 278.104 776.335 278.223 777.448 279C778.757 279.896 778.691 279.896 777.121 279.717C775.615 279.538 775.484 279.299 775.615 276.908C775.812 273.443 775.157 274.219 774.568 278.104C774.241 280.852 773.979 281.33 772.539 281.629C770.903 281.988 770.903 281.988 772.408 282.346C774.634 282.884 774.175 283.78 770.772 285.215C766.845 286.888 761.151 286.708 756.636 284.677C753.429 283.243 737.001 269.917 737.328 269.08C737.459 268.781 741.059 266.451 745.379 263.881C749.698 261.252 756.177 256.95 759.843 254.261C768.089 248.225 781.768 236.214 786.349 231.135C788.247 228.983 790.014 227.25 790.341 227.25C790.603 227.25 792.37 229.043 794.137 231.254H794.137ZM717.432 228.864C717.301 229.461 716.516 229.999 715.731 230.119C714.356 230.298 714.291 230.179 714.945 229.103C715.796 227.549 717.76 227.43 717.432 228.864H717.432ZM716.909 232.091C716.909 233.047 716.647 233.226 715.469 232.868C713.571 232.39 713.44 232.27 713.963 231.493C714.749 230.298 716.909 230.716 716.909 232.091ZM714.291 235.318C714.291 236.154 714.029 236.811 713.636 236.811C713.309 236.811 712.982 236.154 712.982 235.318C712.982 234.481 713.309 233.824 713.636 233.824C714.029 233.824 714.291 234.481 714.291 235.318ZM799.635 237.708C799.831 238.246 799.635 238.604 799.046 238.604C798.522 238.604 798.064 238.186 798.064 237.708C798.064 237.23 798.326 236.811 798.653 236.811C798.98 236.811 799.373 237.23 799.635 237.708ZM715.6 242.488C715.6 242.966 715.469 243.385 715.338 243.385C715.207 243.385 714.945 242.967 714.683 242.488C714.487 242.01 714.618 241.592 714.945 241.592C715.338 241.592 715.6 242.01 715.6 242.488ZM801.991 243.445C801.991 244.281 801.663 244.58 800.878 244.46C799.176 244.162 798.98 242.19 800.616 242.19C801.598 242.19 801.991 242.548 801.991 243.444V243.445ZM803.889 244.52C802.907 244.819 802.449 244.162 802.972 243.385C803.365 242.847 803.627 242.847 804.02 243.445C804.347 243.923 804.281 244.341 803.889 244.52H803.889ZM802.056 246.193C802.122 247.209 802.187 247.209 802.449 246.193C802.776 244.939 804.871 245.058 805.067 246.373C805.394 248.106 804.347 248.703 801.467 248.345C799.111 248.046 798.718 247.807 798.718 246.612C798.718 245.476 799.046 245.177 800.354 245.177C801.467 245.177 801.99 245.536 802.056 246.193L802.056 246.193ZM806.572 250.974C806.572 252.587 806.376 253.006 805.852 252.528C805.394 252.109 805.263 251.153 805.525 250.316C806.114 248.105 806.572 248.404 806.572 250.974H806.572ZM804.609 250.854C804.609 252.05 804.281 252.348 802.972 252.348C801.663 252.348 801.336 252.049 801.336 250.854C801.336 249.659 801.664 249.36 802.972 249.36C804.282 249.36 804.609 249.659 804.609 250.854ZM803.954 254.739C803.954 256.232 803.692 256.531 802.318 256.531C800.944 256.531 800.682 256.232 800.682 254.739C800.682 253.245 800.944 252.946 802.318 252.946C803.692 252.946 803.954 253.245 803.954 254.739ZM806.572 254.32C806.572 254.738 806.114 255.635 805.59 256.292C804.674 257.368 804.674 257.308 804.609 255.456C804.609 254.141 804.936 253.543 805.59 253.543C806.114 253.543 806.572 253.902 806.572 254.32ZM804.151 257.607C805.198 258.025 805.198 258.145 804.281 259.399C803.692 260.117 802.514 260.714 801.598 260.714C800.289 260.714 800.027 260.415 800.027 258.921C800.027 257.428 800.289 257.129 801.533 257.188C802.318 257.188 803.496 257.427 804.151 257.607V257.607ZM795.446 262.208C795.446 263.403 795.119 263.702 793.81 263.702C792.108 263.702 791.912 263.284 792.566 261.67C793.221 260.057 795.446 260.475 795.446 262.208ZM798.718 262.806C798.718 263.881 798.391 264.3 797.409 264.3C796.427 264.3 796.1 263.881 796.1 262.806C796.1 261.73 796.427 261.312 797.409 261.312C798.391 261.312 798.718 261.73 798.718 262.806ZM801.991 261.79C801.991 262.089 801.402 262.806 800.682 263.403C799.438 264.479 799.373 264.419 799.373 263.284C799.373 262.626 799.569 261.909 799.831 261.73C800.42 261.132 801.99 261.192 801.99 261.79H801.991ZM791.519 264.718C791.454 266.451 790.537 267.885 789.49 267.885C788.574 267.885 788.247 267.467 788.247 266.092C788.247 264.599 788.508 264.3 789.883 264.3C790.799 264.3 791.519 264.479 791.519 264.718H791.519ZM794.922 266.69C794.661 268.243 794.399 268.482 793.221 268.124C791.454 267.646 791.519 267.765 791.977 266.212C792.173 265.375 792.828 264.897 793.744 264.897C794.988 264.897 795.184 265.136 794.922 266.69ZM798.064 265.435C798.064 266.152 796.166 267.526 795.708 267.108C794.988 266.511 796.035 264.897 797.082 264.897C797.606 264.897 798.064 265.136 798.064 265.435ZM790.865 269.498C790.865 270.395 790.996 270.335 791.781 269.319C792.304 268.722 792.959 268.363 793.155 268.602C793.744 269.14 789.556 272.666 788.443 272.666C787.919 272.666 787.592 271.889 787.592 270.574C787.592 268.722 787.788 268.483 789.228 268.483C790.341 268.483 790.864 268.841 790.864 269.499L790.865 269.498ZM786.152 273.98C785.825 276.012 783.665 276.191 783.665 274.219C783.665 273.024 783.992 272.666 785.04 272.666C786.021 272.666 786.349 272.964 786.152 273.98H786.152ZM783.665 276.61C783.665 277.207 781.506 278.582 780.589 278.641C780.131 278.641 779.738 278.103 779.738 277.446C779.738 276.49 780.197 276.251 781.702 276.251C782.814 276.251 783.665 276.43 783.665 276.609L783.665 276.61ZM777.775 280.972C777.775 281.689 775.877 282.346 775.092 281.868C774.764 281.689 774.634 281.27 774.83 280.972C775.354 280.255 777.775 280.255 777.775 280.972Z" fill="black"/>
<path d="M767.303 224.02C767.303 224.976 768.743 227.247 769.201 227.008C769.463 226.828 770.248 227.187 770.903 227.844C771.557 228.502 772.539 229.039 773.063 229.039C773.848 229.039 773.717 228.741 772.67 227.665C771.885 226.888 771.23 225.753 771.23 225.096C771.23 224.259 770.772 223.96 769.267 223.9C768.154 223.841 767.303 223.9 767.303 224.02L767.303 224.02Z" fill="#628659"/>
<path d="M764.62 228.92L763.18 230.055L765.34 231.011C768.089 232.266 768.154 232.266 767.303 230.772C766.321 229.159 766.976 228.561 768.677 229.577C770.444 230.533 771.295 229.816 769.659 228.68C767.892 227.545 766.452 227.605 764.62 228.919V228.92Z" fill="#628659"/>
<path d="M760.954 231.252C760.496 231.431 760.103 232.148 760.103 232.925C760.103 234 759.841 234.239 758.794 234C757.943 233.761 756.504 234.478 754.409 236.032C752.642 237.347 750.613 238.841 749.762 239.319C748.126 240.335 748.65 241.291 750.286 240.394C750.94 240.036 751.791 240.335 753.035 241.41C754.409 242.605 754.867 242.785 754.867 242.068C754.867 241.53 754.409 240.813 753.886 240.394C753.362 239.976 752.904 239.259 752.904 238.841C752.904 237.705 755.522 237.765 756.962 239.02C758.467 240.275 758.598 238.9 757.158 237.407C756.242 236.51 756.242 236.331 757.158 235.614C758.009 235.016 758.401 235.016 759.318 235.853C760.823 237.048 761.412 237.048 761.412 235.853C761.412 235.375 761.674 235.076 762.001 235.255C762.983 235.853 765.993 234.538 765.993 233.522C765.993 232.387 765.077 232.387 764.03 233.522C762.786 234.897 761.87 234.598 762.328 232.984C762.721 231.431 762.263 230.833 760.954 231.251V231.252Z" fill="#628659"/>
<path d="M745.77 242.126C744.265 244.696 745.312 246.967 748.061 246.967C748.911 246.967 750.024 246.548 750.613 246.011C751.987 244.756 751.464 244.278 749.762 245.234C749.042 245.652 747.995 245.772 747.341 245.533C746.228 245.174 746.228 245.114 747.341 244.397C748.519 243.561 748.519 241.529 747.21 241.17C746.817 241.051 746.162 241.469 745.77 242.126H745.77Z" fill="#628659"/>
<path d="M735.626 244.633C730.194 250.548 738.768 258.138 744.92 252.879C747.014 251.146 746.294 250.847 743.676 252.281C740.731 253.895 738.768 253.835 736.87 252.042C734.513 249.951 734.71 247.262 737.328 244.752C738.833 243.318 739.095 242.78 738.375 242.78C737.786 242.78 736.542 243.617 735.626 244.632L735.626 244.633Z" fill="#628659"/>
<path d="M610.615 376.899C598.441 379.437 589.047 383.726 582.529 389.677C576.586 395.103 575.435 398.954 575.819 410.945L576.107 421.097L580.228 426.348C584.35 431.687 584.734 433.087 583.679 438.863C583.008 442.102 583.008 442.189 580.516 440.789C578.119 439.564 577.736 439.651 572.56 442.189C567.096 444.902 567 445.077 567 448.666V452.429L575.531 457.068C582.241 460.656 584.733 462.581 586.938 465.732C591.347 472.296 602.275 477.81 614.928 479.998C620.679 480.961 624.993 482.799 639.563 490.413C644.931 493.301 650.107 495.577 651.161 495.577C653.462 495.577 661.897 490.675 661.897 489.275C661.897 488.663 662.184 487.262 662.472 486.212C662.952 484.637 662.185 483.761 657.488 481.048L652.024 477.81L656.242 475.797C658.542 474.659 660.939 473.784 661.514 473.696C662.089 473.696 666.211 475.534 670.524 477.81L678.48 481.924L683.848 479.298C689.025 476.76 689.216 476.497 689.504 472.734L689.696 468.883L681.069 464.507L672.442 460.131V445.603V431.074L675.797 427.224C677.618 425.123 679.631 421.972 680.11 420.31C681.356 416.371 681.356 402.368 680.11 398.342C678.96 394.579 672.825 387.927 668.032 385.214C662.473 382.063 663.048 384.164 669.374 389.502C677.81 396.679 679.919 402.455 676.755 409.632C675.893 411.383 674.263 413.833 673.113 414.971C669.278 418.734 659.789 423.81 651.929 426.173C644.931 428.274 642.726 428.449 629.307 428.537C613.011 428.537 606.78 427.486 596.236 422.935C567.863 410.595 574.861 387.577 609.369 380.05C620.584 377.6 640.809 377.862 650.682 380.575C651.737 380.838 652.312 380.575 652.312 379.788C652.312 377.687 645.027 376.462 630.265 376.112C620.584 375.849 614.641 376.024 610.615 376.9L610.615 376.899ZM609.177 383.376C596.332 386.614 586.939 391.953 583.583 397.816C581.666 401.23 582.337 408.231 584.925 411.382C585.98 412.695 588.856 414.971 591.252 416.546C610.519 428.449 646.081 428.449 665.444 416.546C681.643 406.656 675.413 392.128 651.833 384.776C645.027 382.676 642.439 382.325 629.786 382.063C618.187 381.888 614.257 382.151 609.177 383.376V383.376ZM645.314 385.826C659.597 388.539 671.483 396.591 671.483 403.418C671.483 410.419 664.773 415.846 650.874 420.134C643.876 422.235 641.96 422.41 628.348 422.41C614.737 422.41 612.819 422.235 605.822 420.134C591.731 415.758 585.213 410.42 585.213 403.243C585.213 396.854 593.361 390.728 607.068 386.614C616.941 383.726 632.565 383.376 645.314 385.826H645.314ZM655.188 380.925C655.188 381.975 658.351 383.551 660.364 383.551C662.664 383.551 662.185 382.238 659.501 381.1C656.53 379.787 655.188 379.787 655.188 380.925V380.925ZM593.744 424.685C611.286 432.737 636.879 433.787 656.338 427.311C664.677 424.51 668.128 422.585 674.167 417.333C678.001 414.007 678.193 413.92 678.193 415.933C678.193 419.346 674.455 425.385 670.237 428.711C665.444 432.562 657.009 436.326 648.478 438.426C639.851 440.614 617.037 440.614 608.218 438.426C590.964 434.137 580.516 426.435 578.503 416.546L577.832 413.308L582.817 417.596C585.501 419.959 590.485 423.11 593.744 424.685ZM601.125 438.951C620.296 445.253 645.889 444.115 663.239 436.15L670.524 432.737V446.478C670.524 460.131 670.524 460.306 667.744 464.157C660.843 474.222 641.192 479.823 619.817 477.898C606.397 476.76 594.127 471.421 589.239 464.682C586.746 461.269 586.651 460.656 586.363 446.741L585.98 432.3L590.197 434.488C592.402 435.713 597.386 437.726 601.125 438.951V438.951ZM582.145 444.465C583.583 445.428 584.254 446.653 584.254 448.841C584.254 450.504 583.775 451.816 583.2 451.816C582.625 451.816 579.749 450.591 576.777 449.016L571.505 446.303L573.71 444.64C576.298 442.714 579.27 442.627 582.145 444.465L582.145 444.465ZM579.941 453.654C581.762 454.617 583.296 456.017 583.296 456.805C583.296 457.768 581.954 457.33 577.832 455.23C574.765 453.654 571.506 451.816 570.643 451.116C567.863 448.928 569.78 448.141 573.327 450.066C575.149 451.029 578.12 452.604 579.941 453.654H579.941ZM678.96 466.345L685.19 469.583L682.89 471.158C679.822 473.346 677.905 473.259 672.825 470.546C668.607 468.27 668.607 468.27 670.045 465.732C670.908 464.332 671.77 463.194 672.154 463.194C672.441 463.194 675.509 464.594 678.959 466.345H678.96ZM670.812 472.384C675.509 474.834 677.81 476.847 676.563 477.46C675.413 478.072 664.677 471.946 665.252 470.983C666.019 469.933 665.828 469.846 670.812 472.384V472.384ZM686.628 473.872C686.341 474.484 684.807 475.709 683.177 476.585C679.247 478.685 678.864 476.585 682.794 474.397C685.861 472.559 687.107 472.471 686.628 473.872ZM652.408 481.311C654.996 482.536 657.105 483.849 657.105 484.199C657.105 484.549 655.667 485.512 653.941 486.3L650.874 487.875L644.26 484.374L637.646 480.873L641.863 479.998C644.164 479.56 646.464 479.123 646.944 479.035C647.327 478.948 649.819 479.998 652.407 481.311H652.408ZM639.467 484.724C646.752 488.487 650.107 490.85 649.245 491.638C648.669 492.163 629.307 482.711 629.307 481.923C629.307 480.698 634.195 482.011 639.467 484.724H639.467ZM659.022 488.137C659.022 489.188 654.516 492.076 652.887 492.076C651.545 492.076 653.846 489.275 656.05 488.137C659.214 486.562 659.022 486.562 659.022 488.137Z" fill="black"/>
<path d="M613.97 390.902C607.931 392.478 601.7 395.541 599.016 398.167C593.361 403.768 598.441 411.295 610.327 414.97C630.936 421.534 659.98 414.795 659.98 403.418C659.98 399.742 654.229 394.841 647.04 392.302C639.946 389.852 621.063 388.977 613.97 390.902H613.97Z" fill="#FFDAB7"/>
<path d="M489.579 515.788C486.317 516.965 483.661 518.212 483.661 518.558C483.661 519.528 485.482 519.182 490.337 517.381C495.8 515.372 497.545 515.234 499.138 516.757C501.034 518.42 500.655 520.013 495.724 530.819C490.717 541.763 489.427 543.564 484.799 545.504C481.309 546.958 479.792 547.097 475.847 546.058C473.344 545.434 473.116 545.157 473.495 543.703C474.178 541.348 473.04 541.555 470.006 544.395C468.64 545.712 467.199 546.612 466.743 546.335C466.061 545.919 474.406 537.815 475.544 537.815C475.923 537.815 475.923 538.438 475.696 539.2C475.316 540.17 475.544 540.586 476.454 540.586C477.137 540.586 477.82 539.755 478.047 538.577C478.351 537.33 481.234 534.144 486.393 529.434C490.717 525.485 494.282 521.814 494.282 521.26C494.282 520.706 490.413 523.754 485.634 527.979C480.854 532.273 476.378 535.737 475.771 535.737C475.089 535.737 473.192 536.845 471.523 538.23C469.93 539.616 468.185 540.516 467.806 540.308C466.743 539.685 465.985 534.144 466.592 531.581C467.426 528.256 471.371 524.654 476.834 522.368C480.02 520.983 481.31 520.152 480.475 520.013C478.958 519.667 471.144 522.714 469.02 524.516C464.999 527.771 463.481 535.183 465.757 540.17C466.896 542.595 466.288 544.049 464.24 544.049C462.875 544.049 452.026 551.184 448.233 554.578C443.605 558.734 445.046 559.219 449.978 555.201C452.253 553.4 455.364 551.253 456.805 550.56L459.385 549.244L461.433 551.184L463.557 553.054L462.116 555.409C460.371 558.457 454.15 564.275 449.75 567.046L446.336 569.124L444.06 567.115C441.86 565.037 441.784 564.968 442.998 562.89C444.363 560.396 444.439 559.981 443.529 559.981C443.15 559.981 442.087 561.089 441.177 562.405C439.736 564.552 439.66 564.899 440.722 566.423C441.405 567.254 442.922 568.708 444.136 569.54L446.336 570.994L450.812 568.362C453.24 566.907 456.35 564.621 457.792 563.236C460.978 560.119 467.426 551.945 468.792 549.244C470.309 546.265 470.613 546.127 473.647 547.304C477.82 548.898 484.344 548.274 487.986 545.919C491.552 543.633 492.993 541.486 498 530.264C502.097 521.121 502.78 517.311 500.579 515.441C498.076 513.432 495.648 513.502 489.579 515.787V515.788ZM465.454 547.859C467.123 549.521 467.199 549.66 465.985 550.768C464.771 551.876 464.544 551.876 462.647 550.145C460.978 548.551 460.826 548.136 461.661 547.235C462.95 545.781 463.406 545.85 465.454 547.859Z" fill="black"/>
<path d="M466.841 548.731L464.073 546.21C463.611 545.788 462.781 545.862 462.221 546.375L461.123 547.379C460.563 547.892 460.484 548.65 460.947 549.071L463.714 551.593C464.177 552.014 465.007 551.94 465.567 551.427L466.664 550.423C467.225 549.91 467.304 549.153 466.841 548.731Z" fill="#FFA24B"/>
</svg>
