<svg width="458" height="199" viewBox="0 0 458 199" fill="none" xmlns="http://www.w3.org/2000/svg">
<path d="M414.706 133.205C414.706 97.5273 413.975 57.005 413.975 18.1911C414.15 18.2178 406.11 3.92288 403.479 0.652798C400.687 0.652798 398.538 0.692839 395.629 0.692839C389.884 6.65907 383.554 18.2845 383.554 18.2845C383.554 50.7451 381.098 105.389 381.098 130.722C381.098 133.418 407.294 133.925 414.706 133.205Z" fill="white"/>
<path d="M405.555 134.153C395.965 134.153 383.115 133.499 380.879 131.671C380.455 131.324 380.367 130.977 380.367 130.736C380.367 118.844 380.908 100.492 381.478 81.0446C382.136 58.6612 382.823 35.5304 382.823 18.2991C382.823 18.1923 382.852 18.0989 382.896 18.0055C383.159 17.525 389.328 6.23317 395.073 0.280293C395.205 0.14682 395.409 0.053389 395.614 0.053389C397.076 0.053389 398.348 0.0400411 399.605 0.0266939C400.847 0.0133466 402.075 0 403.464 0C403.698 0 403.903 0.0934306 404.034 0.266945C405.54 2.14891 408.639 7.35434 410.349 10.2907C413.77 16.1635 414.559 17.6584 414.647 18.1923H414.662C414.662 37.9997 414.852 58.381 415.042 78.0815C415.217 97.4484 415.393 115.734 415.393 133.206C415.393 133.539 415.115 133.82 414.749 133.846C412.908 134.047 409.501 134.153 405.555 134.153ZM381.8 130.683C382.223 131.204 385.644 132.165 395.892 132.632C402.485 132.939 410.042 132.925 413.975 132.618C413.975 115.334 413.799 97.2482 413.624 78.1082C413.434 58.4343 413.244 38.0931 413.244 18.3125C412.63 16.9911 405.715 4.76497 403.099 1.32138C401.871 1.32138 400.745 1.33473 399.619 1.34807C398.45 1.36142 397.266 1.37477 395.936 1.37477C390.702 6.91388 384.957 17.1646 384.241 18.4726C384.241 35.7039 383.554 58.7814 382.896 81.098C382.355 100.478 381.814 118.804 381.8 130.683Z" fill="black"/>
<path d="M426.05 130.737H363.118V140.4H426.05V130.737Z" fill="white"/>
<path d="M426.05 141.055H363.118C362.723 141.055 362.402 140.762 362.402 140.401V130.738C362.402 130.377 362.723 130.084 363.118 130.084H426.05C426.445 130.084 426.767 130.377 426.767 130.738V140.401C426.752 140.762 426.445 141.055 426.05 141.055ZM363.82 139.747H425.334V131.378H363.82V139.747Z" fill="black"/>
<path d="M393.335 16.5139L413.552 16.4872L457.071 21.4924L456.983 29.8344L313.503 29.6342V21.479L393.335 16.5139Z" fill="white"/>
<path d="M456.983 30.487L313.489 30.2734C313.094 30.2734 312.772 29.9798 312.772 29.6194L312.787 21.4642C312.787 21.1172 313.079 20.8369 313.445 20.8236L393.261 15.8584C393.276 15.8584 393.291 15.8584 393.305 15.8584L413.537 15.8183C413.566 15.8183 413.596 15.8183 413.625 15.8183L457.159 20.8369C457.524 20.877 457.787 21.1572 457.787 21.4909L457.7 29.833C457.7 30.1933 457.378 30.487 456.983 30.487ZM314.205 28.9787L456.282 29.1923L456.355 22.0649L413.508 17.1397L393.349 17.1798L314.22 22.0916L314.205 28.9787Z" fill="black"/>
<path d="M309.716 58.2737L347.973 58.2604L347.929 74.8911L309.994 74.4239L309.716 58.2737Z" fill="#9DD78F"/>
<path d="M347.929 75.545L309.979 75.0778C309.599 75.0778 309.278 74.7842 309.278 74.4371L309 58.287C309 58.1134 309.073 57.9399 309.205 57.8198C309.336 57.6997 309.526 57.6196 309.716 57.6196H347.973C348.163 57.6196 348.338 57.6863 348.47 57.8065C348.601 57.9266 348.674 58.1001 348.674 58.2736L348.631 74.891C348.631 75.0645 348.558 75.2246 348.411 75.3581C348.294 75.4649 348.119 75.545 347.929 75.545ZM310.696 73.7831L347.227 74.2236L347.271 58.9143H310.447L310.696 73.7831Z" fill="black"/>
<path d="M347.929 59.0777C347.695 59.0777 347.462 58.9709 347.33 58.7707C343.003 52.5909 339.348 46.1042 335.489 39.257C333.998 36.6143 332.448 33.8781 330.811 31.0618C323.385 40.4049 316.777 49.174 310.623 57.8231C310.404 58.1301 309.965 58.2101 309.644 58.0099C309.307 57.8097 309.22 57.4093 309.439 57.1157C315.783 48.1863 322.625 39.1369 330.329 29.4601C330.475 29.2733 330.709 29.1798 330.957 29.1932C331.206 29.2065 331.425 29.34 331.542 29.5402C333.384 32.7035 335.094 35.7333 336.761 38.6697C340.62 45.5035 344.26 51.9503 348.543 58.09C348.748 58.397 348.66 58.7974 348.324 58.9843C348.192 59.051 348.061 59.0777 347.929 59.0777Z" fill="black"/>
<path d="M414.56 129.945C409.429 126.662 400.628 121.83 392.866 117.559C388.349 115.076 384.066 112.727 380.967 110.939L380.323 110.565L381.084 110.538C391.857 110.151 402.602 110.124 412.981 110.111C403.874 103.104 393.714 96.4034 381.917 89.6497L381.244 89.2627L382.048 89.2493C392.559 89.1025 403.362 89.4629 413.829 89.8366C404.444 83.0161 394.723 76.2624 383.335 68.6411L382.721 68.2274L383.481 68.2407C394.094 68.4676 404.195 68.828 413.536 69.3085C404.839 63.0219 395.717 56.5885 384.899 49.1007L384.387 48.7404L385.031 48.7137C393.041 48.3132 401.666 48.3666 412.119 48.8605C404.283 41.8932 395.819 35.3263 387.852 29.2667L388.159 28.933C396.301 35.1128 404.926 41.8265 412.908 48.9539L413.361 49.3543L412.732 49.3276C402.28 48.8204 393.67 48.7537 385.703 49.1141C396.535 56.6152 405.672 63.0753 414.414 69.3886L414.998 69.8157L414.253 69.7756C404.941 69.2951 394.84 68.9214 384.227 68.6945C395.585 76.3158 405.292 83.0695 414.691 89.9033L415.261 90.3171L414.545 90.2904C404.108 89.93 393.348 89.5563 382.867 89.6764C394.591 96.4301 404.722 103.144 413.8 110.164L414.297 110.552H413.653C403.304 110.565 392.618 110.592 381.888 110.965C384.928 112.7 388.919 114.903 393.129 117.212C400.906 121.483 409.706 126.315 414.852 129.611L414.56 129.945Z" fill="black"/>
<path d="M248.31 113.229C227.703 115.515 212.724 123.721 209.62 134.399C209.124 136.235 209 139.757 209 155.644C209 168.121 209.165 175.315 209.455 176.627C211.607 185.957 223.483 193.937 240.034 197.31C268.669 203.08 299.745 193.488 304.379 177.489C304.876 175.653 305 172.131 305 156.244C305 143.766 304.835 136.572 304.545 135.261C302.186 125.107 288.738 116.864 269.621 113.791C265.193 113.079 252.697 112.742 248.31 113.229ZM279.096 150.099C277.193 151.897 276.366 154.37 277.276 155.382C277.938 156.094 278.931 155.644 278.931 154.633C278.931 153.396 279.593 151.972 280.586 151.073C281.703 150.061 282.655 150.099 282.655 151.185C282.655 152.234 283.359 152.946 284.145 152.684C285.014 152.385 284.848 150.549 283.855 149.424C282.572 147.963 281.207 148.15 279.097 150.099H279.096ZM227.455 149.05C227.083 149.387 226.793 150.249 226.793 151.11C226.793 152.347 226.917 152.609 227.497 152.497C227.91 152.422 228.283 152.047 228.366 151.635C228.655 150.249 229.234 149.912 230.269 150.549C231.345 151.148 232.007 152.31 232.421 154.258C232.752 155.906 233.952 155.944 234.158 154.295C234.366 152.609 233.91 151.56 232.338 149.949C231.138 148.788 230.517 148.45 229.483 148.45C228.696 148.45 227.786 148.713 227.455 149.05ZM242.972 133.313C238.131 134.474 235.235 136.198 233.827 138.746C231.179 143.429 235.483 148.3 243.676 149.911C246.49 150.436 252.2 150.436 255.014 149.911C261.882 148.6 266.31 144.553 265.441 140.394C265.11 138.671 262.338 135.898 259.855 134.737C255.552 132.788 247.855 132.114 242.972 133.313ZM255.179 135.111C259.731 136.198 262.752 138.296 263.455 140.769L263.745 141.893L262.379 140.844C258.904 138.184 254.269 137.059 247.897 137.322C243.096 137.509 239.952 138.333 236.848 140.282C234.903 141.481 234.572 141.144 235.896 139.195C236.931 137.659 239.331 136.197 242.393 135.336C245.331 134.474 252.076 134.361 255.179 135.111V135.111ZM255.841 139.832C258.697 140.619 262.131 142.493 262.545 143.429C262.917 144.329 260.31 146.389 257.579 147.289C252.448 149.05 246.241 149.05 241.193 147.326C238.793 146.539 235.896 144.553 235.896 143.766C235.896 143.204 237.924 141.556 239.662 140.732C243.428 138.97 251.248 138.521 255.841 139.832ZM230.641 123.908C228.324 125.594 227.166 129.903 229.069 129.903C229.69 129.903 229.938 129.566 230.145 128.479C230.641 125.631 233.621 123.571 233.91 125.856C233.993 126.493 234.324 126.943 234.779 127.018C235.648 127.168 236.062 126.306 235.731 125.069C235.11 122.859 232.876 122.334 230.641 123.908ZM267.055 115.29C285.096 117.426 298.917 124.92 302.186 134.362C305.538 143.879 296.683 153.846 280.545 158.717C272.021 161.302 268.752 161.714 257.414 161.752C248.517 161.752 246.738 161.639 242.683 160.927C222.696 157.255 210.2 147.776 211.193 137.097C212.186 126.531 227.083 117.501 247.483 115.14C251.952 114.616 262.048 114.691 267.055 115.29H267.055ZM302.434 147.963C299.869 156.656 287.786 164.075 271.814 166.847C250.503 170.519 226.958 165.611 216.365 155.232C214.007 152.946 211.483 148.937 211.483 147.551C211.524 146.839 211.607 146.877 212.434 147.888C218.352 155.195 229.441 160.553 243.552 162.913C249.345 163.887 264.986 163.887 270.531 162.951C278.724 161.527 286.338 159.091 291.676 156.094C295.11 154.146 299.704 150.399 301.524 148.038C302.145 147.251 302.682 146.577 302.765 146.577C302.807 146.577 302.683 147.214 302.434 147.963ZM216.49 158.042C222.655 163.138 232.586 167.11 243.552 168.908C248.724 169.732 260.393 170.032 266.186 169.433C282.034 167.859 295.731 161.789 301.772 153.658L302.972 152.01L302.848 164.562L302.724 177.114L301.442 179.55C295.979 190.004 277.855 197.198 257 197.16C234.821 197.123 215.704 188.842 211.814 177.601C211.152 175.615 211.069 174.004 211.069 163.738V152.122L212.848 154.295C213.841 155.532 215.497 157.181 216.49 158.042Z" fill="black"/>
<path d="M113.507 80.2667C113.507 80.2667 99.6048 57.8156 100.134 57.345C100.364 52.4908 103.145 48.85 107.349 45.135C111.554 41.42 135.899 29.1852 142.233 26.5847C150.94 23.0183 173.644 20.7893 181.144 24.6653C181.144 24.6653 188.346 38.3118 187.627 39.0919C187.464 43.5004 177.102 56.5525 173.196 59.8713C169.29 63.19 164.53 65.6543 159.837 68.0814C156.161 69.9761 152.499 71.8708 148.824 73.7654C143.318 76.6136 137.73 79.4865 131.694 81.1459C125.659 82.8053 119.027 83.1396 113.507 80.2667Z" fill="white"/>
<path d="M122.988 83.0143C119.326 83.0143 116.016 82.2713 113.182 80.7976C113.073 80.7481 112.992 80.6614 112.938 80.5748C112.897 80.5128 109.425 74.8908 106.048 69.2811C100.175 59.5106 99.3342 57.7522 99.4834 57.1701C99.8089 51.6472 103.403 47.7712 106.889 44.7001C111.161 40.9355 135.642 28.6265 141.962 26.026C150.805 22.3976 173.672 20.0943 181.457 24.1313C181.579 24.1932 181.674 24.2799 181.728 24.3914C181.741 24.4285 183.545 27.8463 185.241 31.3261C188.292 37.592 188.482 38.818 188.252 39.2762C187.818 44.0686 177.469 57.0216 173.617 60.2908C169.63 63.6838 164.802 66.1729 160.122 68.5876L149.11 74.2716C143.644 77.095 137.988 80.0175 131.844 81.714C128.752 82.5808 125.768 83.0143 122.988 83.0143ZM113.996 79.8193C119.868 82.7914 126.745 81.875 131.505 80.5624C137.5 78.9154 143.088 76.0176 148.499 73.2314L159.512 67.5474C164.11 65.1698 168.87 62.7055 172.749 59.4116C176.886 55.8947 186.814 43.1274 186.977 39.0533C186.977 38.979 186.99 38.9047 187.031 38.8428C187.004 37.753 183.817 31.0784 180.656 25.0848C173.116 21.407 150.873 23.6979 142.532 27.1157C136.266 29.6791 112.015 41.8643 107.838 45.5545C103.118 49.7154 101.03 53.2446 100.826 57.3559C100.826 57.3683 100.826 57.3807 100.826 57.3931C101.233 58.9162 109.032 71.8197 113.996 79.8193ZM100.609 57.7522C100.609 57.7522 100.609 57.7645 100.609 57.7522C100.609 57.7645 100.609 57.7522 100.609 57.7522Z" fill="black"/>
<path d="M164.015 81.1868C163.73 74.9703 164.15 68.7167 165.303 62.5746C165.832 59.7388 166.537 56.8782 168.138 54.3891C169.196 52.7545 171.393 51.1942 173.169 52.1849C173.943 52.6183 174.363 53.4356 174.621 54.2158C175.57 57.002 175.272 59.9864 175.041 62.8841C174.553 69.1254 174.404 75.3789 174.607 81.6202C174.702 84.4559 174.553 87.8366 171.895 89.3226C169.887 90.4371 167.039 89.8179 165.574 88.1586C164.11 86.524 164.15 84.0721 164.015 81.1868Z" fill="white"/>
<path d="M169.616 90.5002C167.934 90.5002 166.198 89.8067 165.073 88.556C163.594 86.8966 163.499 84.6428 163.391 82.0176L163.35 81.2127C163.065 74.9591 163.499 68.6559 164.639 62.4766C165.168 59.6532 165.886 56.6812 167.555 54.0931C168.219 53.0653 169.562 51.7402 171.149 51.3687C171.99 51.183 172.803 51.282 173.509 51.6783C174.54 52.2603 175.001 53.3129 175.245 54.0435C176.181 56.805 175.95 59.7151 175.733 62.5262L175.706 62.9348C175.218 69.1265 175.082 75.4049 175.272 81.6089C175.38 84.7915 175.096 88.2464 172.234 89.8439C171.461 90.2897 170.552 90.5002 169.616 90.5002ZM164.679 81.1631L164.72 81.9804C164.829 84.4819 164.91 86.4508 166.103 87.8006C167.419 89.2743 169.928 89.7448 171.569 88.8284C173.834 87.5653 174.065 84.6428 173.97 81.6584C173.766 75.4172 173.916 69.0893 174.404 62.8605L174.431 62.4519C174.648 59.7523 174.865 56.9536 173.997 54.4027C173.699 53.5234 173.319 52.9786 172.831 52.7061C172.424 52.4832 171.99 52.4337 171.488 52.5452C170.511 52.7681 169.399 53.6349 168.708 54.7122C167.148 57.127 166.47 59.9752 165.954 62.6871C164.815 68.7674 164.395 74.9962 164.679 81.1631Z" fill="black"/>
<path d="M35.0339 108.497C34.2608 98.6146 33.6098 87.9896 37.882 79.4327C39.4553 76.2873 41.5982 73.6125 43.7818 71.012C48.5424 65.3157 53.5063 59.8298 58.633 54.5917C60.9794 52.2017 63.3935 49.8365 66.2282 48.3628C70.4869 46.1586 71.8974 46.1586 76.5494 46.2081C82.3407 46.2577 88.1456 46.3196 93.7741 46.6911C95.4423 47.1245 95.8085 49.6755 95.8085 51.6692C95.8492 61.2911 95.6458 80.8073 95.6458 80.8073L175.178 81.5379C175.178 81.5379 174.988 99.7291 174.988 108.063L35.0339 108.497Z" fill="white"/>
<path d="M35.0333 109.09C34.6807 109.09 34.3959 108.842 34.3688 108.533C33.5008 97.4124 33.1074 87.5305 37.2712 79.1717C38.858 75.9768 41.0009 73.3144 43.2388 70.6272C47.9857 64.9433 53.004 59.4079 58.1171 54.1697C60.5584 51.6807 62.9862 49.3154 65.8886 47.817C70.3236 45.5261 71.8833 45.5385 76.5489 45.5756C82.2588 45.6252 88.1586 45.6871 93.8143 46.0586C93.855 46.0586 93.9092 46.071 93.9499 46.0834C95.591 46.5044 96.459 48.4238 96.4726 51.6435C96.5132 60.2128 96.3505 76.8189 96.3098 80.1872L175.177 80.9054C175.543 80.9054 175.828 81.1778 175.828 81.5122C175.828 81.6979 175.638 99.8024 175.638 108.037C175.638 108.372 175.34 108.644 174.974 108.644L35.0333 109.09ZM74.9078 46.7892C71.5442 46.7892 70.1473 47.0245 66.5531 48.882C63.8406 50.2937 61.4943 52.5723 59.1208 54.987C54.0212 60.188 49.0301 65.6986 44.2967 71.3702C42.0995 73.9955 40.0109 76.596 38.4783 79.6795C34.518 87.6296 34.8163 97.1648 35.6437 107.889L174.323 107.455C174.336 99.8644 174.472 85.2643 174.513 82.1314L95.6452 81.4131C95.2791 81.4131 94.9942 81.1407 94.9942 80.8064C94.9942 80.6082 95.1977 61.1911 95.157 51.6683C95.1434 49.204 94.5874 47.5818 93.6515 47.2846C88.0637 46.9254 82.2046 46.8635 76.5489 46.814C75.9522 46.7892 75.4096 46.7892 74.9078 46.7892Z" fill="black"/>
<path d="M64.3431 99.383C55.473 99.383 49.8309 103.928 48.7323 110.491C47.7287 116.447 51.0244 123.01 57.2904 125.747C67.4489 130.168 79.0044 123.37 79.0044 113.698C78.9908 103.853 71.8161 99.383 64.3431 99.383Z" fill="#FFA24B"/>
<path d="M63.8815 127.731C61.5352 127.731 59.1888 127.26 56.9917 126.294C50.7257 123.57 46.9688 116.883 48.0674 110.406C49.2745 103.236 55.5133 98.7783 64.3291 98.7783C71.9514 98.7783 79.6415 103.397 79.6415 113.7C79.6415 118.443 76.9289 122.839 72.3854 125.464C69.7949 126.963 66.8382 127.731 63.8815 127.731ZM64.3427 99.9794C56.2186 99.9794 50.4815 104.041 49.383 110.58C48.3793 116.548 51.8243 122.691 57.5749 125.192C62.1455 127.186 67.4214 126.901 71.6937 124.437C75.8574 122.047 78.3394 118.022 78.3394 113.7C78.3259 103.583 70.7986 99.9794 64.3427 99.9794Z" fill="black"/>
<path d="M64.0714 106.31C59.4058 106.31 56.4492 108.589 55.866 111.883C55.337 114.867 57.073 118.161 60.3688 119.523C65.7125 121.74 71.7886 118.334 71.7886 113.48C71.775 108.552 67.991 106.31 64.0714 106.31Z" fill="white"/>
<path d="M63.8405 120.813C62.5656 120.813 61.2908 120.566 60.0972 120.07C56.6794 118.646 54.6179 115.166 55.2146 111.786C55.8792 108.034 59.2699 105.705 64.0711 105.705C68.2349 105.705 72.4393 108.108 72.4393 113.482C72.4393 115.872 71.0424 118.126 68.696 119.501C67.2177 120.38 65.5359 120.813 63.8405 120.813ZM64.0711 106.907C59.8938 106.907 57.0727 108.801 56.5167 111.971C56.0148 114.832 57.7373 117.767 60.6397 118.968C63.0403 119.959 65.78 119.785 67.9907 118.485C69.9573 117.333 71.1238 115.464 71.1238 113.47C71.1102 108.628 67.3126 106.907 64.0711 106.907Z" fill="black"/>
<path d="M149.965 99.383C141.095 99.383 135.453 103.928 134.354 110.491C133.351 116.447 136.646 123.01 142.912 125.747C153.071 130.168 164.626 123.37 164.626 113.698C164.613 103.853 157.424 99.383 149.965 99.383Z" fill="#FFA24B"/>
<path d="M149.503 127.731C147.157 127.731 144.811 127.26 142.614 126.294C136.348 123.57 132.591 116.883 133.689 110.406C134.896 103.236 141.135 98.7783 149.951 98.7783C157.573 98.7783 165.263 103.397 165.263 113.7C165.263 118.443 162.551 122.839 158.007 125.464C155.403 126.963 152.46 127.731 149.503 127.731ZM149.965 99.9794C141.84 99.9794 136.103 104.041 135.005 110.58C134.001 116.548 137.446 122.691 143.197 125.192C147.767 127.186 153.043 126.901 157.316 124.437C161.479 122.047 163.961 118.022 163.961 113.7C163.948 103.583 156.407 99.9794 149.965 99.9794Z" fill="black"/>
<path d="M149.692 106.31C145.027 106.31 142.07 108.589 141.487 111.883C140.958 114.867 142.694 118.161 145.99 119.523C151.334 121.74 157.41 118.334 157.41 113.48C157.396 108.552 153.612 106.31 149.692 106.31Z" fill="white"/>
<path d="M149.449 120.813C148.174 120.813 146.899 120.566 145.706 120.07C142.288 118.646 140.226 115.166 140.823 111.786C141.488 108.034 144.878 105.705 149.68 105.705C153.843 105.705 158.048 108.108 158.048 113.482C158.048 115.872 156.651 118.126 154.305 119.501C152.826 120.38 151.144 120.813 149.449 120.813ZM149.693 106.907C145.516 106.907 142.695 108.801 142.139 111.971C141.637 114.832 143.359 117.767 146.262 118.968C148.663 119.959 151.402 119.785 153.599 118.485C155.566 117.333 156.732 115.464 156.732 113.47C156.732 108.628 152.935 106.907 149.693 106.907Z" fill="black"/>
<path d="M53.8587 77.3659L65.604 62.704C67.5164 59.7443 71.5852 57.6887 74.9216 57.7135L81.486 58.085L81.2962 77.3535L53.8587 77.3659Z" fill="white"/>
<path d="M53.8589 77.9745C53.6148 77.9745 53.3842 77.8506 53.2757 77.6401C53.1672 77.442 53.1808 77.1943 53.3299 77.0086L65.0618 62.3714C67.0284 59.3623 71.2328 57.1085 74.8812 57.1085C74.8947 57.1085 74.9219 57.1085 74.9354 57.1085L81.5405 57.48C81.8931 57.5048 82.1644 57.7648 82.1644 58.0868L81.9745 77.3553C81.9745 77.6897 81.6761 77.9497 81.3099 77.9497L53.8589 77.9745ZM74.8405 58.3221C71.6532 58.3221 67.9099 60.3282 66.1739 63.0154C66.1603 63.0277 66.1467 63.0525 66.1332 63.0649L55.1609 76.7609L80.6589 76.7486L80.8352 58.644L74.8947 58.3097C74.8676 58.3221 74.854 58.3221 74.8405 58.3221Z" fill="black"/>
<path d="M38.2069 103.168C38.0848 103.168 37.9899 103.082 37.9899 102.97C37.9899 102.859 38.0848 102.772 38.2069 102.772L48.5417 102.685C48.6637 102.685 48.7587 102.772 48.7587 102.884C48.7587 102.995 48.6637 103.082 48.5417 103.082L38.2069 103.168Z" fill="black"/>
<path d="M78.9898 103.533C78.8677 103.533 78.7728 103.446 78.7728 103.335C78.7728 103.223 78.8677 103.136 78.9898 103.136C86.2458 103.136 93.8003 103.025 101.097 102.926C111.812 102.777 122.892 102.616 133.77 102.777C133.892 102.777 133.987 102.876 133.987 102.975C133.987 103.087 133.892 103.174 133.77 103.174C122.892 103.013 111.825 103.174 101.111 103.322C93.8003 103.421 86.2458 103.533 78.9898 103.533Z" fill="black"/>
<path d="M163.229 103.041C163.107 103.041 163.012 102.954 163.012 102.843C163.012 102.731 163.107 102.645 163.229 102.645C164.802 102.645 167.27 102.62 169.25 102.608C170.62 102.595 171.773 102.583 172.289 102.583C172.411 102.583 172.506 102.67 172.506 102.781C172.506 102.892 172.411 102.979 172.289 102.979C171.773 102.979 170.62 102.992 169.25 103.004C167.27 103.016 164.802 103.041 163.229 103.041Z" fill="black"/>
<path d="M143.902 71.1097C143.835 71.1097 143.753 71.0725 143.713 71.0106C136.945 60.72 130.258 50.1942 123.857 39.7302C123.802 39.6311 123.83 39.5073 123.938 39.4578C124.047 39.4082 124.182 39.433 124.236 39.5321C130.638 49.996 137.324 60.5095 144.092 70.8001C144.16 70.8991 144.119 71.023 144.011 71.0725C143.97 71.0973 143.93 71.1097 143.902 71.1097Z" fill="black"/>
<path d="M163.934 55.063C163.852 55.063 163.784 55.0258 163.744 54.9639L146.885 28.6368C146.817 28.5378 146.858 28.4139 146.967 28.3644C147.075 28.3149 147.211 28.3396 147.265 28.4387L164.123 54.7658C164.191 54.8648 164.151 54.9887 164.042 55.0382C164.001 55.063 163.974 55.063 163.934 55.063Z" fill="black"/>
<path d="M23.3287 94.5852C23.3016 94.5852 23.2744 94.5852 23.2473 94.5852C15.5844 93.7555 7.96209 91.4893 1.24854 88.022C0.936594 87.861 0.814539 87.4895 1.00442 87.2047C1.18073 86.9199 1.58762 86.8084 1.89956 86.9818C8.47749 90.3748 15.9099 92.5914 23.4101 93.3964C23.7762 93.4335 24.034 93.7307 23.9933 94.0651C23.9526 94.3499 23.6677 94.5852 23.3287 94.5852Z" fill="black"/>
<path d="M20.7107 100.09C20.7107 100.09 20.6972 100.09 20.7107 100.09L0.65143 99.9783C0.285236 99.9783 -0.0131179 99.7059 0.000444842 99.3715C0.000444842 99.0371 0.298812 98.7771 0.665006 98.7771L20.7243 98.8885C21.0905 98.8885 21.3889 99.161 21.3753 99.4953C21.3617 99.8297 21.0634 100.09 20.7107 100.09Z" fill="black"/>
<path d="M7.14909 111.316C6.91852 111.316 6.7015 111.204 6.57944 111.006C6.40312 110.721 6.51165 110.35 6.8236 110.189C10.7161 108.17 14.907 106.709 19.2878 105.867C19.6404 105.793 19.993 106.003 20.0744 106.325C20.1558 106.647 19.9252 106.969 19.5726 107.043C15.3274 107.873 11.2586 109.285 7.48816 111.241C7.37966 111.291 7.25759 111.316 7.14909 111.316Z" fill="black"/>
<path d="M137.377 178.812H101.535V197.992H137.377V178.812Z" fill="white"/>
<path d="M137.377 198.626H101.535C101.153 198.626 100.842 198.342 100.842 197.993V178.812C100.842 178.464 101.153 178.179 101.535 178.179H137.377C137.759 178.179 138.071 178.464 138.071 178.812V197.993C138.071 198.342 137.759 198.626 137.377 198.626ZM102.229 197.372H136.683V179.446H102.229V197.372Z" fill="black"/>
<path d="M101.535 178.812H65.6936V197.992H101.535V178.812Z" fill="white"/>
<path d="M101.535 198.626H65.6936C65.3114 198.626 65 198.342 65 197.993V178.812C65 178.464 65.3114 178.179 65.6936 178.179H101.535C101.918 178.179 102.229 178.464 102.229 178.812V197.993C102.229 198.342 101.918 198.626 101.535 198.626ZM66.3872 197.372H100.842V179.446H66.3872V197.372Z" fill="black"/>
<path d="M119.456 159.633H83.6147V178.813H119.456V159.633Z" fill="white"/>
<path d="M119.456 179.447H83.6147C83.2325 179.447 82.9211 179.162 82.9211 178.813V159.633C82.9211 159.284 83.2325 159 83.6147 159H119.456C119.839 159 120.15 159.284 120.15 159.633V178.813C120.15 179.162 119.839 179.447 119.456 179.447ZM84.3083 178.18H118.763V160.254H84.3083V178.18Z" fill="black"/>
<path d="M95.0657 174.92H87.8039C87.6765 174.92 87.5775 174.829 87.5775 174.713C87.5775 174.597 87.6765 174.506 87.8039 174.506H95.0657C95.1931 174.506 95.2922 174.597 95.2922 174.713C95.2922 174.829 95.1931 174.92 95.0657 174.92Z" fill="black"/>
</svg>
