<svg width="229" height="141" viewBox="0 0 229 141" fill="none" xmlns="http://www.w3.org/2000/svg">
<path d="M55.1739 112.195H1.04755V140.009H55.1739V112.195Z" fill="white"/>
<path d="M55.1739 140.928H1.04745C0.470272 140.928 0 140.516 0 140.01V112.195C0 111.689 0.470272 111.277 1.04745 111.277H55.1739C55.751 111.277 56.2213 111.689 56.2213 112.195V140.01C56.1999 140.516 55.7297 140.928 55.1739 140.928ZM2.07363 139.11H54.105V113.114H2.07363V139.11Z" fill="black"/>
<path d="M109.3 112.195H55.1741V140.009H109.3V112.195Z" fill="white"/>
<path d="M109.279 140.928H55.1526C54.5754 140.928 54.1052 140.516 54.1052 140.01V112.195C54.1052 111.689 54.5754 111.277 55.1526 111.277H109.279C109.856 111.277 110.326 111.689 110.326 112.195V140.01C110.326 140.516 109.856 140.928 109.279 140.928ZM56.2002 139.11H108.232V113.114H56.2002V139.11Z" fill="black"/>
<path d="M82.237 84.3806H28.1106V112.195H82.237V84.3806Z" fill="#9DD78F"/>
<path d="M82.2372 113.114H28.1108C27.5336 113.114 27.0633 112.701 27.0633 112.195V84.3808C27.0633 83.8747 27.5336 83.4624 28.1108 83.4624H82.2372C82.8144 83.4624 83.2846 83.8747 83.2846 84.3808V112.195C83.2633 112.701 82.793 113.114 82.2372 113.114ZM29.1368 111.296H81.1683V85.2992H29.1368V111.296Z" fill="black"/>
<path d="M134.354 84.3806H80.2277V112.195H134.354V84.3806Z" fill="white"/>
<path d="M134.354 113.114H80.2277C79.6505 113.114 79.1803 112.701 79.1803 112.195V84.3808C79.1803 83.8747 79.6505 83.4624 80.2277 83.4624H134.354C134.931 83.4624 135.402 83.8747 135.402 84.3808V112.195C135.402 112.701 134.931 113.114 134.354 113.114ZM81.2752 111.296H133.307V85.2992H81.2752V111.296Z" fill="black"/>
<path d="M56.1567 0.918457H2.03033V28.733H56.1567V0.918457Z" fill="white"/>
<path d="M56.1568 29.6513H2.03039C1.45321 29.6513 0.982941 29.239 0.982941 28.7329V0.918385C0.982941 0.412326 1.45321 0 2.03039 0H56.1568C56.734 0 57.2042 0.412326 57.2042 0.918385V28.7329C57.2042 29.239 56.734 29.6513 56.1568 29.6513ZM3.07784 27.8332H55.1093V1.8368H3.07784V27.8332Z" fill="black"/>
<path d="M109.3 56.5662H55.1741V84.3807H109.3V56.5662Z" fill="white"/>
<path d="M109.279 85.299H55.1526C54.5754 85.299 54.1052 84.8866 54.1052 84.3806V56.5661C54.1052 56.06 54.5754 55.6477 55.1526 55.6477H109.279C109.856 55.6477 110.326 56.06 110.326 56.5661V84.3806C110.326 84.8866 109.856 85.299 109.279 85.299ZM56.2002 83.4622H108.232V57.4658H56.2002V83.4622Z" fill="black"/>
<path d="M55.1739 56.5662H1.04755V84.3807H55.1739V56.5662Z" fill="white"/>
<path d="M55.1739 85.299H1.04745C0.470272 85.299 0 84.8866 0 84.3806V56.5661C0 56.06 0.470272 55.6477 1.04745 55.6477H55.1739C55.751 55.6477 56.2213 56.06 56.2213 56.5661V84.3806C56.1999 84.8866 55.7297 85.299 55.1739 85.299ZM2.07363 83.4622H54.105V57.4658H2.07363V83.4622Z" fill="black"/>
<path d="M163.405 112.195H109.279V140.009H163.405V112.195Z" fill="white"/>
<path d="M163.405 140.928H109.279C108.702 140.928 108.231 140.516 108.231 140.01V112.195C108.231 111.689 108.702 111.277 109.279 111.277H163.405C163.982 111.277 164.453 111.689 164.453 112.195V140.01C164.453 140.516 163.982 140.928 163.405 140.928ZM110.326 139.11H162.358V113.114H110.326V139.11Z" fill="black"/>
<path d="M82.237 28.7329H28.1106V56.5474H82.237V28.7329Z" fill="white"/>
<path d="M82.2372 57.466H28.1108C27.5336 57.466 27.0633 57.0537 27.0633 56.5476V28.7331C27.0633 28.2271 27.5336 27.8147 28.1108 27.8147H82.2372C82.8144 27.8147 83.2846 28.2271 83.2846 28.7331V56.5476C83.2633 57.0724 82.793 57.466 82.2372 57.466ZM29.1368 55.6479H81.1683V29.6515H29.1368V55.6479Z" fill="black"/>
<path d="M45.4039 50.9244H34.4375C34.2451 50.9244 34.0956 50.7932 34.0956 50.6245C34.0956 50.4558 34.2451 50.3246 34.4375 50.3246H45.4039C45.5963 50.3246 45.746 50.4558 45.746 50.6245C45.746 50.7932 45.5963 50.9244 45.4039 50.9244Z" fill="black"/>
<path d="M17.5288 134.968H6.90454C6.71215 134.968 6.56244 134.837 6.56244 134.668C6.56244 134.499 6.71215 134.368 6.90454 134.368H17.5288C17.7212 134.368 17.8708 134.499 17.8708 134.668C17.8708 134.837 17.7212 134.968 17.5288 134.968Z" fill="black"/>
<path d="M68.256 79.1137H61.1802C60.9878 79.1137 60.8383 78.9825 60.8383 78.8138C60.8383 78.6451 60.9878 78.5139 61.1802 78.5139H68.256C68.4484 78.5139 68.5981 78.6451 68.5981 78.8138C68.5981 78.9825 68.4484 79.1137 68.256 79.1137Z" fill="black"/>
<path d="M160.818 82.2486C158.35 84.1156 153.134 83.8991 152.594 78.4471C151.391 66.1089 150.372 46.7088 150.017 30.4338C149.987 28.8374 149.863 26.7946 150.619 25.3065C151.375 23.8183 153.258 22.8983 155.109 22.7766C156.359 22.6954 157.532 23.1419 158.643 23.5883C174.736 29.9874 193.53 36.5352 210.009 43.8137C212.015 44.693 213.373 47.5341 212.555 49.4145C212.246 50.1451 211.537 50.6998 210.827 51.2003C209.546 52.1203 208.219 52.9726 206.877 53.8384C196.122 60.7516 163.766 80.0299 160.818 82.2486Z" fill="white"/>
<path d="M157.501 83.9669C156.792 83.9669 156.097 83.8587 155.449 83.6287C154.246 83.1958 152.178 81.9646 151.839 78.5148C150.666 66.542 149.632 47.2366 149.262 30.4475L149.246 30.0687C149.2 28.4994 149.154 26.5512 149.91 25.0496C150.728 23.4261 152.733 22.2897 155.032 22.1274C156.498 22.0327 157.841 22.5603 158.921 22.9932C164.599 25.2525 170.493 27.4847 176.727 29.8522C187.991 34.1138 199.625 38.5241 210.302 43.2321C212.663 44.2738 214.129 47.5071 213.219 49.6447C212.833 50.524 212.015 51.1734 211.274 51.701C209.978 52.6345 208.605 53.5139 207.294 54.3527C202.047 57.7348 191.894 63.9039 182.066 69.8836C172.144 75.9174 162.763 81.6264 161.282 82.7493C160.263 83.5475 158.875 83.9669 157.501 83.9669ZM155.403 23.4261C155.326 23.4261 155.248 23.4261 155.156 23.4396C153.443 23.5614 151.885 24.4137 151.298 25.5772C150.681 26.8083 150.728 28.5941 150.758 30.0416L150.774 30.4204C151.144 47.1689 152.178 66.4608 153.351 78.3931C153.551 80.463 154.477 81.8564 156.02 82.4111C157.393 82.8981 159.168 82.6411 160.325 81.7617C161.868 80.5982 170.848 75.1462 181.232 68.8148C191.046 62.8486 201.183 56.6796 206.414 53.3109C207.71 52.4722 209.053 51.6063 210.318 50.6999C210.935 50.2535 211.568 49.7664 211.815 49.1847C212.478 47.656 211.336 45.1667 209.623 44.4091C198.977 39.7146 187.358 35.3178 176.125 31.0563C169.876 28.6888 163.966 26.4565 158.288 24.1972C157.424 23.832 156.406 23.4261 155.403 23.4261Z" fill="black"/>
<path d="M210.92 98.2127C209.423 99.1327 207.355 98.8215 206.291 97.5093L173.101 56.1927C172.052 54.8804 172.407 53.0676 173.903 52.1341C175.4 51.2141 177.468 51.5253 178.532 52.8376L211.722 94.1541C212.771 95.4664 212.416 97.2928 210.92 98.2127Z" fill="white"/>
<path d="M209.006 99.403C208.775 99.403 208.543 99.3894 208.297 99.3489C207.232 99.1865 206.291 98.6724 205.658 97.8878L172.468 56.5712C171.172 54.9613 171.62 52.7291 173.456 51.5927C175.292 50.4563 177.838 50.8486 179.134 52.4585L212.324 93.7751C212.956 94.5597 213.188 95.5067 213.003 96.4402C212.817 97.3737 212.231 98.199 211.336 98.7536C210.657 99.1866 209.84 99.403 209.006 99.403ZM175.801 52.2691C175.292 52.2691 174.767 52.4044 174.32 52.675C173.163 53.392 172.885 54.799 173.703 55.8136L206.892 97.1302C207.294 97.6172 207.88 97.9554 208.559 98.0501C209.238 98.1583 209.917 98.0231 210.472 97.6713C211.028 97.3196 211.413 96.8055 211.521 96.2102C211.645 95.615 211.491 95.0197 211.089 94.5327L177.9 53.2161C177.406 52.6073 176.619 52.2691 175.801 52.2691Z" fill="black"/>
<path d="M198.931 74.4966C198.931 74.4966 190.321 79.8133 189.704 80.1651C192.25 83.3308 194.055 86.74 195.922 90.271C200.381 98.767 210.102 111.633 211.969 113.026C216.382 116.314 220.996 113.824 223.48 112.282C226.473 110.429 227.939 107.669 227.708 105.87C227.507 104.314 226.442 102.947 225.393 101.676C220.193 95.4119 214.453 89.4999 208.251 83.9937C204.949 81.085 200.752 77.067 198.931 74.4966Z" fill="#FFA24B"/>
<path d="M216.691 115.313C215.024 115.313 213.234 114.853 211.491 113.554C209.454 112.025 199.733 99.092 195.243 90.5689C193.484 87.2138 191.663 83.7505 189.102 80.5577C188.979 80.4089 188.948 80.233 188.979 80.0571C189.009 79.8813 189.133 79.7324 189.303 79.6242C189.904 79.2725 198.422 74.0098 198.514 73.9557C198.684 73.8475 198.9 73.8069 199.101 73.8475C199.301 73.8881 199.486 73.9963 199.594 74.1451C201.77 77.2026 207.201 82.1135 208.806 83.5475C215.024 89.0672 220.811 95.0469 226.026 101.311C227.199 102.731 228.279 104.138 228.479 105.816C228.726 107.764 227.229 110.794 223.927 112.837C222.724 113.581 219.916 115.313 216.691 115.313ZM190.753 80.3412C193.176 83.4799 194.919 86.7944 196.601 90.0142C201.153 98.6726 210.75 111.281 212.448 112.553C216.197 115.353 220.085 113.608 223.048 111.782C225.856 110.05 227.152 107.493 226.967 105.978C226.797 104.612 225.841 103.367 224.791 102.109C219.622 95.8992 213.883 89.9737 207.711 84.4945C206.168 83.1281 201.184 78.6231 198.715 75.4439C197.033 76.4856 192.466 79.2995 190.753 80.3412Z" fill="black"/>
<path d="M200.598 80.2058C201.338 79.7729 202.079 79.34 202.804 78.9071C201.199 77.2972 199.795 75.7278 198.916 74.5103C198.916 74.5103 190.306 79.827 189.689 80.1788C190.908 81.7075 191.972 83.2768 192.929 84.9003C195.475 83.3039 198.021 81.7346 200.598 80.2058Z" fill="white"/>
<path d="M192.944 85.5633C192.882 85.5633 192.836 85.5633 192.774 85.5498C192.558 85.5092 192.389 85.3874 192.281 85.2116C191.216 83.4258 190.167 81.9106 189.087 80.5577C188.963 80.4089 188.932 80.233 188.963 80.0571C188.994 79.8813 189.117 79.7324 189.287 79.6242C189.889 79.2725 198.406 74.0098 198.499 73.9557C198.669 73.8475 198.885 73.8069 199.085 73.8475C199.286 73.8881 199.471 73.9963 199.579 74.1451C200.35 75.2409 201.631 76.6885 203.39 78.4608C203.529 78.6096 203.591 78.799 203.575 78.9748C203.544 79.1642 203.421 79.3266 203.251 79.4348C202.511 79.8677 201.77 80.2871 201.045 80.7336C198.591 82.1947 196.03 83.764 193.407 85.428C193.253 85.5227 193.114 85.5633 192.944 85.5633ZM190.753 80.3412C191.586 81.4235 192.389 82.6005 193.222 83.9263C195.613 82.4246 197.943 80.9906 200.196 79.6513C200.705 79.3536 201.199 79.056 201.708 78.7584C200.458 77.4731 199.455 76.3503 198.746 75.4168C197.018 76.4856 192.466 79.2995 190.753 80.3412Z" fill="black"/>
<path d="M216.551 111.322C216.211 111.322 215.841 111.295 215.471 111.228C213.604 110.889 212.292 109.564 211.012 108.116C210.919 108.021 210.95 107.886 211.058 107.805C211.166 107.724 211.32 107.751 211.413 107.845C212.632 109.225 213.882 110.483 215.579 110.795C216.073 110.889 216.628 110.903 217.353 110.835C218.032 110.781 219.035 110.646 219.791 110.145C219.899 110.078 220.053 110.091 220.146 110.186C220.223 110.281 220.208 110.416 220.1 110.497C219.236 111.052 218.156 111.201 217.4 111.268C217.168 111.309 216.875 111.322 216.551 111.322Z" fill="black"/>
<path d="M126.272 42.3204C126.133 42.3204 126.026 42.2257 126.026 42.104L125.393 28.44C125.393 28.3182 125.501 28.2235 125.64 28.21C125.794 28.1965 125.902 28.3047 125.902 28.4265L126.535 42.0904C126.535 42.2122 126.427 42.3069 126.272 42.3204C126.288 42.3204 126.272 42.3204 126.272 42.3204Z" fill="black"/>
<path d="M125.439 23.9887C125.3 23.9887 125.192 23.8941 125.192 23.7723L124.991 19.4837C124.991 19.362 125.099 19.2672 125.238 19.2537C125.393 19.2402 125.501 19.3484 125.501 19.4702L125.701 23.7588C125.686 23.8805 125.578 23.9887 125.439 23.9887Z" fill="black"/>
</svg>
