<svg width="77" height="92" viewBox="0 0 77 92" fill="none" xmlns="http://www.w3.org/2000/svg">
<path d="M26.8544 66.4702C25.0425 67.897 21.2151 67.7316 20.8187 63.5648C19.9354 54.1353 19.188 39.3087 18.9275 26.8705C18.9049 25.6504 18.8143 24.0892 19.3692 22.9519C19.9241 21.8145 21.3057 21.1115 22.6645 21.0184C23.5818 20.9564 24.4424 21.2976 25.2577 21.6388C37.0687 26.5293 50.8614 31.5335 62.9554 37.0961C64.4276 37.7681 65.4241 39.9394 64.8239 41.3766C64.5975 41.9349 64.0765 42.3588 63.5556 42.7414C62.6157 43.4444 61.6419 44.0958 60.6567 44.7575C52.7638 50.0409 29.0173 64.7745 26.8544 66.4702Z" fill="white"/>
<path d="M24.4202 67.7883C23.8993 67.7883 23.3897 67.7056 22.9141 67.5298C22.0308 67.1989 20.5134 66.258 20.2643 63.6215C19.4036 54.4712 18.6449 39.7169 18.3731 26.8858L18.3618 26.5963C18.3278 25.397 18.2939 23.9081 18.8488 22.7604C19.4489 21.5197 20.921 20.6512 22.6083 20.5271C23.6841 20.4548 24.6693 20.858 25.462 21.1889C29.6292 22.9155 33.955 24.6215 38.53 26.4309C46.7965 29.6878 55.3348 33.0584 63.171 36.6565C64.9036 37.4526 65.9794 39.9237 65.3113 41.5574C65.0282 42.2294 64.428 42.7257 63.8844 43.1289C62.9332 43.8424 61.9254 44.5144 60.9629 45.1555C57.1127 47.7403 49.6615 52.455 42.448 57.025C35.1667 61.6364 28.2817 65.9996 27.1946 66.8577C26.4472 67.4678 25.428 67.7883 24.4202 67.7883ZM22.8801 21.5197C22.8235 21.5197 22.7668 21.5197 22.6989 21.5301C21.4419 21.6231 20.2982 22.2745 19.8679 23.1637C19.4149 24.1046 19.4489 25.4693 19.4716 26.5757L19.4829 26.8652C19.7547 39.6653 20.5134 54.4092 21.374 63.5285C21.5212 65.1104 22.2006 66.1753 23.333 66.5992C24.3409 66.9715 25.6432 66.775 26.4925 66.1029C27.6249 65.2138 34.2155 61.047 41.8366 56.2082C49.0387 51.6486 56.4786 46.9338 60.3174 44.3593C61.2686 43.7183 62.2538 43.0566 63.1824 42.3638C63.6353 42.0226 64.0996 41.6504 64.2808 41.2058C64.7678 40.0375 63.9297 38.135 62.6728 37.556C54.8592 33.9683 46.3322 30.608 38.0883 27.3511C33.5021 25.5417 29.165 23.8357 24.9977 22.1091C24.3636 21.8299 23.6162 21.5197 22.8801 21.5197Z" fill="black"/>
<path d="M63.6244 78.6813C62.526 79.3844 61.0085 79.1466 60.2272 78.1437L35.8692 46.5673C35.0991 45.5644 35.3596 44.1789 36.458 43.4655C37.5565 42.7624 39.0739 43.0002 39.8552 44.0031L64.2133 75.5795C64.9833 76.5824 64.7228 77.9782 63.6244 78.6813Z" fill="white"/>
<path d="M62.22 79.5896C62.0501 79.5896 61.8802 79.5792 61.699 79.5482C60.9177 79.4241 60.227 79.0313 59.7627 78.4316L35.4046 46.8552C34.4534 45.6248 34.7818 43.9188 36.1293 43.0503C37.4769 42.1818 39.3454 42.4817 40.2966 43.7121L64.6546 75.2884C65.1189 75.8881 65.2887 76.6118 65.1529 77.3253C65.017 78.0387 64.5867 78.6694 63.9299 79.0933C63.4317 79.4242 62.8315 79.5896 62.22 79.5896ZM37.8506 43.5673C37.4769 43.5673 37.0919 43.6707 36.7635 43.8775C35.9142 44.4255 35.7104 45.5008 36.3106 46.2762L60.6686 77.8526C60.963 78.2248 61.3933 78.4833 61.8915 78.5556C62.3898 78.6384 62.8881 78.535 63.2958 78.2661C63.7034 77.9973 63.9865 77.6044 64.0658 77.1495C64.1564 76.6946 64.0431 76.2396 63.7487 75.8674L39.3907 44.2911C39.0283 43.8258 38.4508 43.5673 37.8506 43.5673Z" fill="black"/>
<path d="M54.8257 60.5563C54.8257 60.5563 48.5069 64.6197 48.054 64.8885C49.9224 67.3079 51.2473 69.9134 52.6175 72.612C55.8902 79.1051 63.0243 88.9378 64.3945 90.0028C67.6332 92.5152 71.0191 90.6128 72.8423 89.4341C75.0392 88.0176 76.1149 85.9084 75.9451 84.5333C75.7979 83.3442 75.0165 82.3 74.2465 81.3281C70.4303 76.5409 66.2177 72.0227 61.6655 67.8146C59.2421 65.5916 56.1619 62.5208 54.8257 60.5563Z" fill="#FFA24B"/>
<path d="M67.8596 91.7496C66.6366 91.7496 65.323 91.3981 64.0434 90.4055C62.5486 89.2371 55.4145 79.3527 52.1192 72.839C50.8283 70.2748 49.492 67.6279 47.6122 65.1878C47.5216 65.0741 47.4989 64.9397 47.5216 64.8053C47.5442 64.6709 47.6349 64.5571 47.7594 64.4744C48.2011 64.2056 54.452 60.1836 54.5199 60.1422C54.6445 60.0595 54.803 60.0285 54.9502 60.0595C55.0974 60.0905 55.2333 60.1733 55.3125 60.287C56.9092 62.6237 60.8953 66.3769 62.073 67.4728C66.6366 71.6913 70.8831 76.2613 74.7106 81.0484C75.5713 82.134 76.364 83.2093 76.5112 84.4914C76.6924 85.9803 75.5939 88.2963 73.1706 89.8575C72.2873 90.4262 70.2263 91.7496 67.8596 91.7496ZM48.8239 65.0224C50.6018 67.4211 51.8814 69.9543 53.1157 72.415C56.4563 79.0322 63.4998 88.6685 64.7455 89.6404C67.4972 91.7806 70.3509 90.4469 72.5251 89.051C74.5861 87.7276 75.5373 85.7735 75.4015 84.6155C75.2769 83.5712 74.5748 82.62 73.8047 81.6584C70.0112 76.9127 65.7986 72.384 61.269 68.1966C60.1366 67.1523 56.479 63.7093 54.6671 61.2796C53.4328 62.0757 50.0809 64.2263 48.8239 65.0224Z" fill="black"/>
<path d="M56.0485 64.9212C56.592 64.5904 57.1356 64.2595 57.6678 63.9286C56.4901 62.6983 55.4596 61.4989 54.8141 60.5684C54.8141 60.5684 48.4953 64.6317 48.0424 64.9005C48.937 66.0689 49.7184 67.2682 50.4204 68.509C52.2889 67.2889 54.1574 66.0896 56.0485 64.9212Z" fill="white"/>
<path d="M50.4316 69.0134C50.3863 69.0134 50.3523 69.0134 50.307 69.0031C50.1485 68.9721 50.0239 68.879 49.9446 68.7446C49.1633 67.3798 48.3932 66.2218 47.6005 65.1878C47.51 65.0741 47.4874 64.9397 47.51 64.8053C47.5327 64.6709 47.6232 64.5571 47.7478 64.4744C48.1894 64.2056 54.4403 60.1836 54.5083 60.1422C54.6328 60.0595 54.7914 60.0285 54.9386 60.0595C55.0858 60.0905 55.2217 60.1733 55.301 60.287C55.8672 61.1245 56.807 62.2308 58.098 63.5853C58.1999 63.699 58.2452 63.8437 58.2338 63.9781C58.2112 64.1229 58.1206 64.247 57.996 64.3297C57.4525 64.6605 56.9089 64.9811 56.3767 65.3223C54.5762 66.4389 52.6964 67.6383 50.7713 68.91C50.6581 68.9824 50.5561 69.0134 50.4316 69.0134ZM48.8236 65.0224C49.4351 65.8496 50.0239 66.7491 50.6354 67.7623C52.3906 66.6147 54.1006 65.5187 55.7539 64.4951C56.1276 64.2676 56.4899 64.0402 56.8636 63.8127C55.9464 62.8305 55.2103 61.9723 54.6894 61.2589C53.4211 62.0757 50.0805 64.2263 48.8236 65.0224Z" fill="black"/>
<path d="M67.756 88.6984C67.5068 88.6984 67.2351 88.6777 66.9633 88.626C65.5931 88.3675 64.6305 87.3542 63.6906 86.2479C63.6227 86.1756 63.6453 86.0722 63.7246 86.0101C63.8039 85.9481 63.9171 85.9688 63.985 86.0411C64.8796 87.0958 65.7969 88.0573 67.0426 88.2951C67.4049 88.3675 67.8125 88.3779 68.3448 88.3262C68.843 88.2848 69.5791 88.1814 70.134 87.7988C70.2133 87.7471 70.3265 87.7575 70.3944 87.8299C70.451 87.9022 70.4398 88.0056 70.3605 88.0677C69.7263 88.4916 68.9337 88.6053 68.3788 88.657C68.2089 88.688 67.9938 88.6984 67.756 88.6984Z" fill="black"/>
<path d="M1.50095 35.9665C1.39903 35.9665 1.31979 35.8941 1.31979 35.8011L0.855469 25.3583C0.855469 25.2653 0.934776 25.1929 1.03669 25.1826C1.14993 25.1722 1.22918 25.255 1.22918 25.348L1.69351 35.7907C1.69351 35.8838 1.61419 35.9562 1.50095 35.9665C1.51227 35.9665 1.50095 35.9665 1.50095 35.9665Z" fill="black"/>
<path d="M0.888919 21.9564C0.787003 21.9564 0.707696 21.884 0.707696 21.791L0.560547 18.5134C0.560547 18.4203 0.639785 18.3479 0.741701 18.3376C0.854942 18.3273 0.934191 18.41 0.934191 18.503L1.08141 21.7806C1.07008 21.8737 0.990836 21.9564 0.888919 21.9564Z" fill="black"/>
<path d="M34.9741 16.0245C34.8722 16.0245 34.7589 15.9935 34.6683 15.9418C34.4192 15.7867 34.3513 15.4765 34.5211 15.2387C37.6919 10.9479 40.0586 6.24348 41.576 1.25992C41.6552 0.991095 41.961 0.836009 42.2555 0.908384C42.5499 0.98076 42.7197 1.25991 42.6404 1.52874C41.089 6.61569 38.6657 11.4235 35.4384 15.797C35.3251 15.9521 35.144 16.0245 34.9741 16.0245Z" fill="black"/>
<path d="M41.7565 19.1109C41.5866 19.1109 41.4281 19.0385 41.3148 18.9144C41.1337 18.6973 41.179 18.3768 41.4168 18.2113C44.6215 15.9781 47.4978 13.3725 49.9551 10.4568C50.1363 10.2397 50.4873 10.1984 50.7251 10.3638C50.9629 10.5292 51.0082 10.8497 50.8271 11.0669C48.3018 14.0446 45.3575 16.7225 42.0849 19.0075C41.9943 19.0799 41.8697 19.1109 41.7565 19.1109Z" fill="black"/>
<path d="M48.9371 23.9878C48.7106 23.9878 48.4955 23.8534 48.4162 23.6466C48.3256 23.3985 48.4616 23.1193 48.722 23.0159C56.3544 20.0692 56.9545 20.2243 57.7246 20.4207C57.951 20.4828 58.121 20.6689 58.1323 20.8757C58.1436 21.0928 58.0077 21.2892 57.7812 21.3719C54.9502 22.3852 52.0172 23.2537 49.0843 23.9671C49.0277 23.9878 48.9824 23.9878 48.9371 23.9878Z" fill="black"/>
</svg>
