<svg width="110" height="97" viewBox="0 0 110 97" fill="none" xmlns="http://www.w3.org/2000/svg">
<path d="M9.61855 44.6159C12.3822 43.8734 15.0343 42.6227 16.8396 40.6491C19.3803 37.9134 19.9821 34.0443 18.9568 30.6246C17.9316 27.2245 15.3908 24.2738 12.3152 21.9875C15.0342 18.1966 17.9762 14.6597 21.0518 11.2009C24.7961 13.624 28.3842 15.9298 32.5296 16.1057C36.5413 16.2816 40.4193 14.3665 42.9155 11.6113C45.4116 8.85599 46.6373 5.35817 47.1499 1.87988C47.2837 1.54768 47.5066 1.48906 47.6403 1.46952C51.8303 1.19595 56.0425 0.922377 60.2325 0.648804C60.9902 4.08801 62.7732 7.15593 65.5145 9.3836C68.2558 11.6113 71.9778 12.9401 75.722 12.8423C77.2598 12.8033 78.7754 12.5297 80.2687 12.2366C82.7203 11.7676 85.3278 11.1814 87.0439 9.57901C90.387 11.5722 93.3735 13.6826 96.2708 15.9103C94.7998 16.7896 94.1535 18.0207 93.6409 19.2127C92.5266 21.753 91.6797 24.5474 92.3706 27.2049C93.106 29.9602 95.4684 32.227 98.2766 33.5948C101.107 34.9627 104.361 35.4903 107.57 35.6466C108.462 39.6721 108.885 43.9711 109.041 48.2896C106.3 49.1494 103.715 49.8724 101.374 51.0644C99.0343 52.2564 96.9616 53.9565 95.9141 56.1451C94.7329 58.6072 95.0227 61.4798 96.2485 63.9224C97.4743 66.365 99.5692 68.4168 101.932 70.0778C99.0566 74.1423 96.3154 77.9332 93.4849 81.6656C89.1166 79.1448 83.6117 78.3631 78.82 79.731C77.6165 80.0632 76.4798 80.5322 75.4992 81.2161C74.2734 82.0759 73.3596 83.2288 72.6687 84.4599C70.9749 87.391 70.3509 90.7912 70.8858 94.0545C65.782 94.9534 60.8566 95.5201 55.8866 95.8718C56.1763 91.3578 53.9699 86.8048 49.8914 84.3427C45.8128 81.861 39.9958 81.7046 35.895 84.1472C33.956 85.3002 32.4628 86.9612 31.0141 88.583C26.5567 85.8082 22.1216 82.9943 17.9762 79.8678C20.2941 76.7217 22.6341 73.5561 22.7456 69.9996C22.8347 66.3064 20.2941 62.7695 16.7505 60.7567C13.2068 58.744 8.79391 58.1382 4.58165 58.5291C3.13299 54.2301 1.90714 50.0288 0.904221 45.7884C3.97984 45.593 6.85495 45.3585 9.61855 44.6159ZM35.9841 54.0933C37.6779 57.3957 40.4415 60.2487 43.7846 62.3786C45.7236 63.6293 47.8632 64.6454 50.1588 65.2902C59.5417 67.9283 70.5514 63.2971 74.8974 55.5393C78.0622 49.892 77.9285 42.8963 74.5409 37.3467C71.131 31.7971 64.5784 27.8303 57.4466 27.0291C51.0502 26.3061 42.9823 29.3349 38.3688 34.7868C33.7331 40.2388 32.797 47.8988 35.9841 54.0933Z" fill="#FFE2C7"/>
<g opacity="0.1294">
<path d="M30.258 45.1045C30.3472 44.4596 30.5032 43.8343 30.6815 43.1895C30.7706 43.0332 30.8375 42.8964 30.9266 42.74C32.2415 40.4342 33.8462 38.2652 35.6515 36.2329C35.9412 36.4088 36.1863 36.6824 36.2754 36.995C36.4537 38.0893 35.4954 39.0859 35.1834 40.1216C34.0913 42.9745 33.3782 44.3619 33.7125 46.9804C33.6679 47.977 35.5622 53.5071 36.1417 54.2106C36.8549 55.4221 37.6796 56.5946 38.6157 57.6889C38.9054 57.982 38.9945 58.1188 38.9499 58.1383C39.4179 58.451 39.8192 58.8809 40.2872 59.2131C41.2678 59.9361 42.2484 60.6786 43.229 61.4016C43.4964 61.5775 43.9199 61.8706 44.2096 62.1442C44.0536 61.9293 44.4772 62.3005 44.8784 62.5936C45.1012 62.7109 46.0817 63.3167 46.5721 63.5316C50.0043 64.5868 53.5703 65.1926 55.4647 65.2708C57.9832 65.4662 60.457 64.919 62.396 64.5087C63.7778 64.1569 64.9813 62.9649 66.4746 63.1994C67.1209 63.3362 67.5443 63.7661 67.7003 64.2742C67.5666 64.4109 67.4106 64.5477 67.2545 64.6845C66.7419 65.0558 66.2516 65.4075 65.739 65.7788C63.8892 66.834 62.0617 67.8892 60.2119 68.9249C57.1586 69.7065 53.8823 69.8629 49.9597 69.1985C50.0266 69.1985 50.1158 69.218 50.1827 69.218C46.0819 68.4559 44.7892 67.9674 41.7804 66.5995C39.1505 65.2317 37.0555 63.2385 35.4285 60.9913C35.3839 60.9327 35.3394 60.8545 35.2948 60.7959C35.2948 60.7959 35.2949 60.7763 35.2726 60.7763C33.3559 58.6854 31.9072 56.2819 30.882 53.7611C29.9236 50.9863 29.946 47.977 30.258 45.1045Z" fill="black"/>
</g>
<g opacity="0.1294">
<path d="M20.2503 74.5527C20.6515 74.5723 21.075 74.6504 21.4316 74.8459C21.9665 75.0999 22.2785 75.5298 22.6128 75.9401C22.9248 76.2919 23.2369 76.6241 23.5043 76.9758C24.3289 77.8942 24.5519 78.2851 26.3571 79.9069C27.36 80.8449 28.9423 81.4507 29.5886 82.6231C29.6109 82.6427 29.611 82.6622 29.611 82.6818C29.9898 82.8772 30.3911 83.0726 30.7922 83.268C31.5277 83.6588 32.4637 83.8542 32.9763 84.4991C34.5587 86.16 32.1071 88.5636 30.0121 87.4498C27.8503 86.4336 25.7999 85.2416 23.9724 83.7956C23.8832 83.7174 23.7941 83.6393 23.705 83.5611C22.2786 82.5645 20.8967 81.5093 19.6264 80.3564C19.1583 79.9265 18.6011 79.4184 18.1554 78.8517C18.6234 78.0115 19.0469 77.1517 19.4257 76.2723C19.7378 75.7056 20.0052 75.139 20.2503 74.5527Z" fill="black"/>
</g>
<g opacity="0.1294">
<path d="M6.0981 45.6125C6.92272 48.4069 7.85878 51.1622 8.88399 53.8979C9.35202 55.1681 9.82006 56.4382 10.2881 57.7279C9.73091 58.3337 8.79483 58.6659 7.90335 58.4314C7.85878 58.4119 7.81421 58.3923 7.76963 58.3923C7.01187 59.3303 5.02827 59.213 4.64938 57.9038C4.47109 57.298 4.18148 56.7118 3.93632 56.106C3.78031 56.0474 3.64658 55.9692 3.51286 55.8715C2.62137 55.2853 2.35383 54.2106 2.01952 53.3312C1.52921 51.5334 1.23946 49.7161 1.1726 47.8793C1.1726 47.762 1.15043 47.6643 1.15043 47.5471C2.82196 46.9218 4.47114 46.2769 6.0981 45.6125Z" fill="black"/>
</g>
<path d="M55.8653 96.6535C55.8875 96.6535 55.9098 96.6535 55.932 96.6535C61.1695 96.3017 66.095 95.696 71.0205 94.8362C71.4662 94.758 71.7559 94.4063 71.689 94.0154C71.1764 90.9084 71.7782 87.6646 73.4052 84.8507C74.163 83.5219 75.0321 82.5449 76.0127 81.8414C76.8151 81.2747 77.818 80.8253 79.0884 80.4736C83.5904 79.2034 88.8056 79.8873 93.0401 82.33C93.419 82.5449 93.9316 82.4667 94.1991 82.115C96.985 78.4218 99.7486 74.6308 102.668 70.5077C102.891 70.195 102.802 69.7847 102.49 69.5502C99.9268 67.7329 98.077 65.7592 97.0295 63.6684C95.8037 61.2257 95.6923 58.6073 96.6952 56.4577C97.7873 54.1324 100.083 52.6082 101.799 51.7288C103.782 50.7127 105.989 50.0483 108.307 49.3253L109.332 49.0127C109.666 48.9149 109.889 48.6218 109.889 48.3092C109.733 43.5803 109.243 39.2813 108.418 35.5489C108.351 35.2167 108.039 34.9823 107.638 34.9627C103.983 34.7673 101.063 34.1225 98.701 32.9891C95.826 31.6017 93.8202 29.4522 93.1961 27.0877C92.5052 24.4497 93.4858 21.6749 94.4219 19.5254C94.9122 18.4115 95.4694 17.3368 96.7397 16.5747C96.9626 16.4379 97.0964 16.2425 97.0964 16.008C97.1187 15.7735 97.0072 15.5586 96.8066 15.4218C93.4636 12.8814 90.5217 10.8492 87.4907 9.05142C87.1563 8.85601 86.6882 8.89509 86.4208 9.14912C84.883 10.5756 82.5429 11.1032 80.069 11.5917C78.5089 11.8849 77.1048 12.1389 75.6784 12.178C72.2239 12.2757 68.7471 11.0837 66.0726 8.91464C63.5319 6.8433 61.7936 3.97077 61.0359 0.590189C60.9467 0.218911 60.5678 -0.0351199 60.1443 0.00396195L47.5521 0.824685C47.2178 0.844226 46.6383 0.981007 46.3263 1.70402C46.304 1.76264 46.2818 1.82127 46.2818 1.86035C45.7247 5.70992 44.3651 8.87555 42.2256 11.2205C39.7294 13.9757 36.0297 15.5976 32.5529 15.4413C28.5858 15.2654 24.9975 12.9401 21.5208 10.6733C21.1642 10.4388 20.6517 10.4974 20.3619 10.8101C16.9074 14.6792 14.0324 18.2161 11.5808 21.6553C11.3579 21.968 11.4247 22.3783 11.759 22.6128C14.0323 24.2934 16.9743 27.0877 18.1109 30.8787C19.1361 34.2397 18.3783 37.8352 16.1496 40.2388C14.6118 41.8997 12.2717 43.1894 9.32978 43.9515C6.65533 44.655 3.86938 44.9091 0.771473 45.124C0.526315 45.1436 0.303536 45.2412 0.169814 45.4171C0.0360909 45.593 -0.0307867 45.8079 0.0137875 46.0033C1.01671 50.1656 2.22015 54.3473 3.71339 58.8027C3.82482 59.1349 4.20376 59.3694 4.60492 59.3303C8.99548 58.9395 13.1185 59.682 16.2387 61.4407C19.7378 63.4143 21.922 66.7949 21.8551 70.0582C21.766 73.3607 19.6042 76.3113 17.3086 79.4379L17.2194 79.5356C16.9965 79.8482 17.0634 80.2586 17.3754 80.4931C21.6545 83.7174 26.2011 86.6094 30.4579 89.2474C30.8145 89.4819 31.3271 89.4038 31.5946 89.0911C32.9095 87.6256 34.4027 85.945 36.2971 84.8117C40.0191 82.584 45.5018 82.6622 49.3351 85.0071C53.0571 87.2543 55.2634 91.5337 54.9737 95.8914C54.9514 96.1063 55.0405 96.3017 55.2188 96.4581C55.4417 96.5753 55.6647 96.6535 55.8653 96.6535ZM69.9507 93.5269C65.627 94.2499 61.2809 94.7775 56.7343 95.1293C56.7566 90.5176 54.3496 86.2186 50.338 83.7955C45.8805 81.0793 39.7294 81.0012 35.4057 83.6001C33.5336 84.7139 32.0848 86.2186 30.8367 87.6451C26.9811 85.2416 22.9249 82.6426 19.0692 79.7896C21.2757 76.7608 23.4821 73.6342 23.5713 70.0778C23.6604 66.3259 21.1642 62.4373 17.1971 60.2096C13.9209 58.3532 9.6864 57.513 5.18441 57.8061C3.89176 53.8979 2.82191 50.1851 1.90814 46.5114C4.7386 46.2965 7.32392 46.0229 9.86465 45.3585C13.1186 44.4987 15.7484 43.0331 17.4868 41.1572C20.0498 38.4019 20.9191 34.2983 19.7601 30.4878C18.6012 26.6383 15.7708 23.7462 13.4084 21.9094C15.6371 18.861 18.2001 15.6953 21.2088 12.2757C24.6856 14.5229 28.2961 16.7115 32.4861 16.9069C36.4978 17.0828 40.7323 15.2459 43.5627 12.1389C45.8583 9.6181 47.3293 6.27661 47.9311 2.25117L59.5649 1.48908C60.4563 4.90874 62.3061 7.83988 64.9583 9.98939C67.9448 12.4125 71.8896 13.7412 75.7453 13.6435C77.3277 13.6045 78.7986 13.3309 80.4479 13.0182C82.8326 12.5688 85.3064 12.0021 87.134 10.5952C89.6747 12.1389 92.2155 13.878 94.9791 15.9689C93.887 16.8873 93.3298 17.9621 92.8618 19.0173C91.8366 21.3427 90.7668 24.4106 91.5691 27.4394C92.3046 30.2143 94.6225 32.7155 97.8987 34.2983C100.328 35.4708 103.27 36.1547 106.88 36.4087C107.594 39.8089 108.039 43.6389 108.195 47.8597L107.75 47.9965C105.343 48.7391 103.069 49.4425 100.952 50.5173C99.013 51.5139 96.4278 53.253 95.1351 55.9497C93.9539 58.4509 94.0652 61.4993 95.4693 64.3132C96.5391 66.4627 98.3444 68.495 100.841 70.3318C98.233 74.0251 95.7368 77.4447 93.2406 80.7667C88.7163 78.4022 83.2784 77.7965 78.5535 79.1252C77.1048 79.5356 75.9237 80.0632 74.9653 80.7471C73.7841 81.5679 72.7812 82.7208 71.8897 84.245C70.285 87.0393 69.5941 90.3417 69.9507 93.5269Z" fill="black"/>
<path d="M56.4429 57.7279C60.0757 57.7279 63.7752 55.9497 65.8256 53.0967C68.0098 50.0874 68.3664 45.9838 66.7395 42.3883C65.6474 39.9652 63.7753 37.933 61.4575 36.6823C58.939 35.3145 55.8187 34.865 53.122 35.5099C50.0018 36.2524 47.684 37.4444 46.213 39.0859C44.4523 41.079 43.4718 43.7366 43.4941 46.5896C43.4941 48.5242 43.9621 50.1851 44.8759 51.5335C45.6782 52.7059 46.7925 53.6243 47.7731 54.3473C50.2693 56.2037 52.498 57.2394 54.7713 57.5911C55.3508 57.6889 55.8857 57.7279 56.4429 57.7279ZM55.685 36.7019C57.3566 36.7019 59.095 37.1318 60.6105 37.9525C62.6164 39.0468 64.2656 40.825 65.224 42.955C66.6504 46.1011 66.3383 49.6966 64.4439 52.3346C62.438 55.129 58.5823 56.7118 55.1056 56.1842C53.122 55.8715 51.1608 54.9531 48.8875 53.2726C48.0183 52.6082 47.0154 51.807 46.3467 50.83C45.589 49.7161 45.2101 48.3092 45.2101 46.6287C45.1878 44.1079 46.0347 41.763 47.5725 40.0434C48.7983 38.656 50.8264 37.6203 53.59 36.9755C54.2587 36.78 54.9496 36.7019 55.685 36.7019Z" fill="black"/>
<path d="M55.6423 66.7558C63.6879 66.7558 71.8897 62.5155 75.6339 55.8715C78.9324 50.0093 78.7764 42.7791 75.2551 37.0145C71.7337 31.2499 64.9361 27.1463 57.5145 26.3256C50.6055 25.544 42.2477 28.9441 37.6566 34.3765C32.8426 40.0825 31.8843 47.9379 35.2051 54.406C36.9212 57.7279 39.7071 60.6982 43.273 62.9844C45.3903 64.3523 47.619 65.3684 49.87 65.9937C51.7644 66.5018 53.7033 66.7558 55.6423 66.7558ZM57.3138 27.7521C64.2006 28.5142 70.5078 32.3247 73.784 37.6789C77.0602 43.0331 77.194 49.7552 74.1407 55.2071C69.8616 62.8476 59.2083 67.049 50.4049 64.5868C48.3099 64.0006 46.2595 63.0626 44.2759 61.7924C40.9329 59.6429 38.3253 56.8877 36.7429 53.8002C33.7118 47.8988 34.6257 40.4342 39.0162 35.2363C43.2731 30.1947 50.962 27.0486 57.3138 27.7521Z" fill="black"/>
</svg>
