<svg width="81" height="71" viewBox="0 0 81 71" fill="none" xmlns="http://www.w3.org/2000/svg">
<path d="M17.8346 51.0045C7.98488 40.1076 10.0752 24.273 22.5035 15.637C34.9318 7.00092 52.9916 8.8337 62.8413 19.7306C72.691 30.6275 70.6007 46.4621 58.1724 55.0981C45.7441 63.7342 27.6843 61.9014 17.8346 51.0045Z" fill="#6AB4D8"/>
<path d="M42.737 23.469V30.2814C42.737 33.8357 43.2438 36.7976 44.2572 39.1671C45.2707 41.5366 46.9598 43.4619 49.3245 45.0909C51.6892 46.72 54.3917 47.7566 57.432 48.349V42.8695C55.2362 41.8328 54.0538 40.3519 53.716 38.5747H57.432V23.469H42.737ZM23.1438 23.469V30.2814C23.1438 33.8357 23.6505 36.7976 24.6639 39.1671C25.6774 41.5366 27.3665 43.4619 29.7312 45.0909C32.0959 46.72 34.7984 47.7566 37.8387 48.349V42.8695C35.6429 41.8328 34.4606 40.3519 34.2916 38.5747H37.8387V23.469H23.1438Z" fill="white"/>
</svg>
